G04 Layer_Physical_Order=1*
G04 Layer_Color=25308*
%FSLAX25Y25*%
%MOIN*%
G70*
G01*
G75*
%ADD10R,0.05315X0.05709*%
%ADD11R,0.04921X0.03150*%
%ADD12R,0.03150X0.04921*%
%ADD13C,0.03000*%
%ADD14C,0.05500*%
%ADD15C,0.04000*%
%ADD16C,0.02000*%
G04:AMPARAMS|DCode=17|XSize=60mil|YSize=80mil|CornerRadius=15mil|HoleSize=0mil|Usage=FLASHONLY|Rotation=90.000|XOffset=0mil|YOffset=0mil|HoleType=Round|Shape=RoundedRectangle|*
%AMROUNDEDRECTD17*
21,1,0.06000,0.05000,0,0,90.0*
21,1,0.03000,0.08000,0,0,90.0*
1,1,0.03000,0.02500,0.01500*
1,1,0.03000,0.02500,-0.01500*
1,1,0.03000,-0.02500,-0.01500*
1,1,0.03000,-0.02500,0.01500*
%
%ADD17ROUNDEDRECTD17*%
%ADD18R,0.08000X0.06000*%
%ADD19C,0.06102*%
%ADD20R,0.06102X0.06102*%
%ADD21C,0.06890*%
%ADD22R,0.06890X0.06890*%
%ADD23C,0.13780*%
%ADD24C,0.07874*%
%ADD25C,0.01772*%
G36*
X196850Y431796D02*
X354330D01*
X354331Y431796D01*
X354383Y431807D01*
X356736Y431653D01*
X359099Y431182D01*
X361382Y430408D01*
X363543Y429342D01*
X365547Y428003D01*
X367359Y426414D01*
X368948Y424602D01*
X370287Y422598D01*
X371353Y420436D01*
X372127Y418154D01*
X372598Y415791D01*
X372752Y413439D01*
X372741Y413386D01*
Y393827D01*
X372506Y393657D01*
X370666Y393917D01*
X369743Y395043D01*
X368618Y395966D01*
X367334Y396652D01*
X365941Y397075D01*
X364992Y397168D01*
Y389792D01*
Y382416D01*
X365941Y382509D01*
X367334Y382932D01*
X368618Y383618D01*
X369743Y384542D01*
X370666Y385667D01*
X372506Y385928D01*
X372741Y385757D01*
Y374016D01*
X372741Y374016D01*
Y367844D01*
X372506Y367673D01*
X370666Y367933D01*
X369743Y369058D01*
X368618Y369982D01*
X367334Y370668D01*
X365941Y371091D01*
X364992Y371184D01*
Y363808D01*
Y356432D01*
X365941Y356525D01*
X367334Y356948D01*
X368618Y357634D01*
X369743Y358557D01*
X370666Y359682D01*
X372506Y359943D01*
X372741Y359772D01*
Y299528D01*
X372506Y299357D01*
X370666Y299618D01*
X369743Y300743D01*
X368618Y301666D01*
X367334Y302352D01*
X365941Y302775D01*
X364992Y302868D01*
Y295492D01*
Y288116D01*
X365941Y288209D01*
X367334Y288632D01*
X368618Y289318D01*
X369743Y290242D01*
X370666Y291367D01*
X372506Y291627D01*
X372741Y291457D01*
Y273544D01*
X372506Y273373D01*
X370666Y273633D01*
X369743Y274759D01*
X368618Y275682D01*
X367334Y276368D01*
X365941Y276791D01*
X364992Y276884D01*
Y269508D01*
Y262132D01*
X365941Y262225D01*
X367334Y262648D01*
X368618Y263334D01*
X369743Y264257D01*
X370666Y265383D01*
X372506Y265643D01*
X372741Y265472D01*
Y259842D01*
X178440D01*
Y265744D01*
X179940Y266120D01*
X180334Y265383D01*
X181257Y264257D01*
X182383Y263334D01*
X183666Y262648D01*
X185059Y262225D01*
X186008Y262132D01*
Y269508D01*
Y276884D01*
X185059Y276791D01*
X183666Y276368D01*
X182383Y275682D01*
X181257Y274759D01*
X180334Y273633D01*
X179940Y272896D01*
X178440Y273272D01*
X178440Y291728D01*
X179940Y292104D01*
X180334Y291367D01*
X181257Y290242D01*
X182383Y289318D01*
X183666Y288632D01*
X185059Y288209D01*
X186008Y288116D01*
Y295492D01*
Y302868D01*
X185059Y302775D01*
X183666Y302352D01*
X182383Y301666D01*
X181257Y300743D01*
X180334Y299618D01*
X179940Y298881D01*
X178440Y299256D01*
Y306888D01*
X179034Y307271D01*
X179940Y307541D01*
X180159Y307395D01*
X180200Y307386D01*
Y308700D01*
Y310014D01*
X180159Y310005D01*
X179940Y309859D01*
X179034Y310129D01*
X178440Y310512D01*
Y359673D01*
X178618Y359784D01*
X180534Y359383D01*
X181457Y358257D01*
X182582Y357334D01*
X183866Y356648D01*
X185259Y356225D01*
X186208Y356132D01*
Y363508D01*
Y370884D01*
X185259Y370791D01*
X183866Y370368D01*
X182582Y369682D01*
X181457Y368759D01*
X180534Y367633D01*
X178618Y367232D01*
X178440Y367343D01*
Y374016D01*
X178440Y374016D01*
Y385657D01*
X178618Y385768D01*
X180534Y385367D01*
X181457Y384242D01*
X182582Y383318D01*
X183866Y382632D01*
X185259Y382209D01*
X186208Y382116D01*
Y389492D01*
Y396868D01*
X185259Y396775D01*
X183866Y396352D01*
X182582Y395666D01*
X181457Y394743D01*
X180534Y393618D01*
X178618Y393216D01*
X178440Y393327D01*
Y401343D01*
X178544Y401437D01*
X179940Y402008D01*
X179959Y401995D01*
X180000Y401987D01*
Y403300D01*
Y404613D01*
X179959Y404605D01*
X179940Y404592D01*
X178544Y405163D01*
X178440Y405257D01*
Y413386D01*
X178429Y413439D01*
X178584Y415791D01*
X179054Y418154D01*
X179828Y420437D01*
X180894Y422598D01*
X182233Y424602D01*
X183822Y426414D01*
X185634Y428003D01*
X187638Y429342D01*
X189800Y430408D01*
X192082Y431182D01*
X194446Y431653D01*
X196798Y431807D01*
X196850Y431796D01*
D02*
G37*
G36*
X372741Y177165D02*
X372750Y177121D01*
X372400Y173571D01*
X371352Y170115D01*
X369650Y166930D01*
X367358Y164138D01*
X364566Y161847D01*
X361381Y160144D01*
X357925Y159096D01*
X354375Y158746D01*
X354331Y158755D01*
X354331Y158755D01*
X349066D01*
X349051Y160249D01*
X349051Y160255D01*
Y163300D01*
X341949D01*
Y160255D01*
X341949Y160249D01*
X341934Y158755D01*
X336028D01*
X335928Y159769D01*
X335072D01*
X334972Y158755D01*
X326028D01*
X325928Y159769D01*
X325072D01*
X324972Y158755D01*
X317941D01*
X317486Y160255D01*
X318421Y160879D01*
X319316Y162219D01*
X319631Y163800D01*
X319316Y165381D01*
X318421Y166721D01*
X317081Y167616D01*
X315500Y167930D01*
X313919Y167616D01*
X312579Y166721D01*
X311684Y165381D01*
X311369Y163800D01*
X311684Y162219D01*
X312579Y160879D01*
X313514Y160255D01*
X313059Y158755D01*
X307941D01*
X307486Y160255D01*
X308421Y160879D01*
X309316Y162219D01*
X309630Y163800D01*
X309316Y165381D01*
X308421Y166721D01*
X307081Y167616D01*
X305500Y167930D01*
X303919Y167616D01*
X302579Y166721D01*
X301684Y165381D01*
X301370Y163800D01*
X301684Y162219D01*
X302579Y160879D01*
X303514Y160255D01*
X303059Y158755D01*
X296028D01*
X295928Y159769D01*
X295072D01*
X294972Y158755D01*
X287941D01*
X287486Y160255D01*
X288421Y160879D01*
X289316Y162219D01*
X289631Y163800D01*
X289316Y165381D01*
X288421Y166721D01*
X287081Y167616D01*
X285500Y167930D01*
X283919Y167616D01*
X282579Y166721D01*
X281684Y165381D01*
X281369Y163800D01*
X281684Y162219D01*
X282579Y160879D01*
X283514Y160255D01*
X283059Y158755D01*
X277941D01*
X277486Y160255D01*
X278421Y160879D01*
X279316Y162219D01*
X279630Y163800D01*
X279316Y165381D01*
X278421Y166721D01*
X277081Y167616D01*
X275500Y167930D01*
X273919Y167616D01*
X272579Y166721D01*
X271684Y165381D01*
X271370Y163800D01*
X271684Y162219D01*
X272579Y160879D01*
X273514Y160255D01*
X273059Y158755D01*
X267941D01*
X267486Y160255D01*
X268421Y160879D01*
X269316Y162219D01*
X269631Y163800D01*
X269316Y165381D01*
X268421Y166721D01*
X267081Y167616D01*
X265500Y167930D01*
X263919Y167616D01*
X262579Y166721D01*
X261684Y165381D01*
X261369Y163800D01*
X261684Y162219D01*
X262579Y160879D01*
X263514Y160255D01*
X263059Y158755D01*
X257941D01*
X257486Y160255D01*
X258421Y160879D01*
X259316Y162219D01*
X259630Y163800D01*
X259316Y165381D01*
X258421Y166721D01*
X257081Y167616D01*
X255500Y167930D01*
X253919Y167616D01*
X252579Y166721D01*
X251684Y165381D01*
X251370Y163800D01*
X251684Y162219D01*
X252579Y160879D01*
X253514Y160255D01*
X253059Y158755D01*
X247941D01*
X247486Y160255D01*
X248421Y160879D01*
X249316Y162219D01*
X249630Y163800D01*
X249316Y165381D01*
X248421Y166721D01*
X247081Y167616D01*
X245500Y167930D01*
X243919Y167616D01*
X242579Y166721D01*
X241684Y165381D01*
X241370Y163800D01*
X241684Y162219D01*
X242579Y160879D01*
X243514Y160255D01*
X243059Y158755D01*
X237941D01*
X237486Y160255D01*
X238421Y160879D01*
X239316Y162219D01*
X239631Y163800D01*
X239316Y165381D01*
X238421Y166721D01*
X237081Y167616D01*
X235500Y167930D01*
X233919Y167616D01*
X232579Y166721D01*
X231684Y165381D01*
X231369Y163800D01*
X231684Y162219D01*
X232579Y160879D01*
X233514Y160255D01*
X233059Y158755D01*
X227941D01*
X227486Y160255D01*
X228421Y160879D01*
X229316Y162219D01*
X229630Y163800D01*
X229316Y165381D01*
X228421Y166721D01*
X227081Y167616D01*
X225500Y167930D01*
X223919Y167616D01*
X222579Y166721D01*
X221684Y165381D01*
X221370Y163800D01*
X221684Y162219D01*
X222579Y160879D01*
X223514Y160255D01*
X223059Y158755D01*
X217941D01*
X217486Y160255D01*
X218421Y160879D01*
X219316Y162219D01*
X219631Y163800D01*
X219316Y165381D01*
X218421Y166721D01*
X217081Y167616D01*
X215500Y167930D01*
X213919Y167616D01*
X212579Y166721D01*
X211684Y165381D01*
X211369Y163800D01*
X211684Y162219D01*
X212579Y160879D01*
X213514Y160255D01*
X213059Y158755D01*
X207941D01*
X207486Y160255D01*
X208421Y160879D01*
X209316Y162219D01*
X209630Y163800D01*
X209316Y165381D01*
X208421Y166721D01*
X207081Y167616D01*
X205500Y167930D01*
X203919Y167616D01*
X202579Y166721D01*
X201684Y165381D01*
X201370Y163800D01*
X201684Y162219D01*
X202579Y160879D01*
X203514Y160255D01*
X203059Y158755D01*
X196850D01*
X196806Y158746D01*
X193256Y159096D01*
X189800Y160144D01*
X186615Y161847D01*
X183823Y164138D01*
X181532Y166930D01*
X179829Y170115D01*
X178781Y173571D01*
X178431Y177121D01*
X178440Y177165D01*
Y253839D01*
X179500Y254900D01*
X372741D01*
Y177165D01*
D02*
G37*
%LPC*%
G36*
X361600Y309613D02*
X361559Y309605D01*
X361101Y309299D01*
X360795Y308841D01*
X360787Y308800D01*
X361600D01*
Y309613D01*
D02*
G37*
G36*
X356100Y309513D02*
Y308700D01*
X356913D01*
X356905Y308741D01*
X356599Y309199D01*
X356141Y309505D01*
X356100Y309513D01*
D02*
G37*
G36*
X355100D02*
X355059Y309505D01*
X354601Y309199D01*
X354295Y308741D01*
X354287Y308700D01*
X355100D01*
Y309513D01*
D02*
G37*
G36*
X362600Y309613D02*
Y308800D01*
X363414D01*
X363405Y308841D01*
X363099Y309299D01*
X362641Y309605D01*
X362600Y309613D01*
D02*
G37*
G36*
X369200D02*
Y308800D01*
X370013D01*
X370005Y308841D01*
X369699Y309299D01*
X369241Y309605D01*
X369200Y309613D01*
D02*
G37*
G36*
X368200D02*
X368159Y309605D01*
X367701Y309299D01*
X367395Y308841D01*
X367387Y308800D01*
X368200D01*
Y309613D01*
D02*
G37*
G36*
X208700Y309813D02*
X208659Y309805D01*
X208201Y309499D01*
X207895Y309041D01*
X207887Y309000D01*
X208700D01*
Y309813D01*
D02*
G37*
G36*
X342800Y309513D02*
Y308700D01*
X343614D01*
X343605Y308741D01*
X343299Y309199D01*
X342841Y309505D01*
X342800Y309513D01*
D02*
G37*
G36*
X224100Y308400D02*
X223287D01*
X223295Y308359D01*
X223601Y307901D01*
X224059Y307595D01*
X224100Y307587D01*
Y308400D01*
D02*
G37*
G36*
X218113Y308300D02*
X217300D01*
Y307487D01*
X217341Y307495D01*
X217799Y307801D01*
X218105Y308259D01*
X218113Y308300D01*
D02*
G37*
G36*
X216300D02*
X215487D01*
X215495Y308259D01*
X215801Y307801D01*
X216259Y307495D01*
X216300Y307487D01*
Y308300D01*
D02*
G37*
G36*
X225914Y308400D02*
X225100D01*
Y307587D01*
X225141Y307595D01*
X225599Y307901D01*
X225905Y308359D01*
X225914Y308400D01*
D02*
G37*
G36*
X341800Y309513D02*
X341759Y309505D01*
X341301Y309199D01*
X340995Y308741D01*
X340986Y308700D01*
X341800D01*
Y309513D01*
D02*
G37*
G36*
X349000Y309414D02*
Y308600D01*
X349814D01*
X349805Y308641D01*
X349499Y309099D01*
X349041Y309405D01*
X349000Y309414D01*
D02*
G37*
G36*
X348000D02*
X347959Y309405D01*
X347501Y309099D01*
X347195Y308641D01*
X347186Y308600D01*
X348000D01*
Y309414D01*
D02*
G37*
G36*
X224100Y310213D02*
X224059Y310205D01*
X223601Y309899D01*
X223295Y309441D01*
X223287Y309400D01*
X224100D01*
Y310213D01*
D02*
G37*
G36*
X225100D02*
Y309400D01*
X225914D01*
X225905Y309441D01*
X225599Y309899D01*
X225141Y310205D01*
X225100Y310213D01*
D02*
G37*
G36*
X216300Y310114D02*
X216259Y310105D01*
X215801Y309799D01*
X215495Y309341D01*
X215487Y309300D01*
X216300D01*
Y310114D01*
D02*
G37*
G36*
X217300D02*
Y309300D01*
X218113D01*
X218105Y309341D01*
X217799Y309799D01*
X217341Y310105D01*
X217300Y310114D01*
D02*
G37*
G36*
X353700Y313400D02*
X352887D01*
X352895Y313359D01*
X353201Y312901D01*
X353659Y312595D01*
X353700Y312586D01*
Y313400D01*
D02*
G37*
G36*
X355514D02*
X354700D01*
Y312586D01*
X354741Y312595D01*
X355199Y312901D01*
X355505Y313359D01*
X355514Y313400D01*
D02*
G37*
G36*
X203100D02*
X202287D01*
X202295Y313359D01*
X202601Y312901D01*
X203059Y312595D01*
X203100Y312586D01*
Y313400D01*
D02*
G37*
G36*
X204913D02*
X204100D01*
Y312586D01*
X204141Y312595D01*
X204599Y312901D01*
X204905Y313359D01*
X204913Y313400D01*
D02*
G37*
G36*
X188600Y309913D02*
Y309100D01*
X189413D01*
X189405Y309141D01*
X189099Y309599D01*
X188641Y309905D01*
X188600Y309913D01*
D02*
G37*
G36*
X194400D02*
X194359Y309905D01*
X193901Y309599D01*
X193595Y309141D01*
X193587Y309100D01*
X194400D01*
Y309913D01*
D02*
G37*
G36*
X209700Y309813D02*
Y309000D01*
X210513D01*
X210505Y309041D01*
X210199Y309499D01*
X209741Y309805D01*
X209700Y309813D01*
D02*
G37*
G36*
X187600Y309913D02*
X187559Y309905D01*
X187101Y309599D01*
X186795Y309141D01*
X186786Y309100D01*
X187600D01*
Y309913D01*
D02*
G37*
G36*
X201700Y310114D02*
X201659Y310105D01*
X201201Y309799D01*
X200895Y309341D01*
X200887Y309300D01*
X201700D01*
Y310114D01*
D02*
G37*
G36*
X202700D02*
Y309300D01*
X203514D01*
X203505Y309341D01*
X203199Y309799D01*
X202741Y310105D01*
X202700Y310114D01*
D02*
G37*
G36*
X195400Y309913D02*
Y309100D01*
X196213D01*
X196205Y309141D01*
X195899Y309599D01*
X195441Y309905D01*
X195400Y309913D01*
D02*
G37*
G36*
X181200Y310014D02*
Y309200D01*
X182013D01*
X182005Y309241D01*
X181699Y309699D01*
X181241Y310005D01*
X181200Y310014D01*
D02*
G37*
G36*
X339008Y302868D02*
Y295992D01*
X345884D01*
X345791Y296941D01*
X345368Y298334D01*
X344682Y299618D01*
X343759Y300743D01*
X342633Y301666D01*
X341350Y302352D01*
X339956Y302775D01*
X339008Y302868D01*
D02*
G37*
G36*
X338008D02*
X337059Y302775D01*
X335666Y302352D01*
X334383Y301666D01*
X333257Y300743D01*
X332334Y299618D01*
X331648Y298334D01*
X331225Y296941D01*
X331132Y295992D01*
X338008D01*
Y302868D01*
D02*
G37*
G36*
X212992D02*
Y295992D01*
X219868D01*
X219775Y296941D01*
X219352Y298334D01*
X218666Y299618D01*
X217743Y300743D01*
X216617Y301666D01*
X215334Y302352D01*
X213941Y302775D01*
X212992Y302868D01*
D02*
G37*
G36*
X363992D02*
X363043Y302775D01*
X361650Y302352D01*
X360367Y301666D01*
X359242Y300743D01*
X358318Y299618D01*
X357632Y298334D01*
X357209Y296941D01*
X357116Y295992D01*
X363992D01*
Y302868D01*
D02*
G37*
G36*
X341800Y307700D02*
X340986D01*
X340995Y307659D01*
X341301Y307201D01*
X341759Y306895D01*
X341800Y306887D01*
Y307700D01*
D02*
G37*
G36*
X349814Y307600D02*
X349000D01*
Y306786D01*
X349041Y306795D01*
X349499Y307101D01*
X349805Y307559D01*
X349814Y307600D01*
D02*
G37*
G36*
X348000D02*
X347186D01*
X347195Y307559D01*
X347501Y307101D01*
X347959Y306795D01*
X348000Y306786D01*
Y307600D01*
D02*
G37*
G36*
X211992Y302868D02*
X211044Y302775D01*
X209650Y302352D01*
X208367Y301666D01*
X207242Y300743D01*
X206318Y299618D01*
X205632Y298334D01*
X205209Y296941D01*
X205116Y295992D01*
X211992D01*
Y302868D01*
D02*
G37*
G36*
X219868Y294992D02*
X212992D01*
Y288116D01*
X213941Y288209D01*
X215334Y288632D01*
X216617Y289318D01*
X217743Y290242D01*
X218666Y291367D01*
X219352Y292651D01*
X219775Y294043D01*
X219868Y294992D01*
D02*
G37*
G36*
X211992D02*
X205116D01*
X205209Y294043D01*
X205632Y292651D01*
X206318Y291367D01*
X207242Y290242D01*
X208367Y289318D01*
X209650Y288632D01*
X211044Y288209D01*
X211992Y288116D01*
Y294992D01*
D02*
G37*
G36*
X193884D02*
X187008D01*
Y288116D01*
X187957Y288209D01*
X189349Y288632D01*
X190633Y289318D01*
X191759Y290242D01*
X192682Y291367D01*
X193368Y292651D01*
X193791Y294043D01*
X193884Y294992D01*
D02*
G37*
G36*
X338008D02*
X331132D01*
X331225Y294043D01*
X331648Y292651D01*
X332334Y291367D01*
X333257Y290242D01*
X334383Y289318D01*
X335666Y288632D01*
X337059Y288209D01*
X338008Y288116D01*
Y294992D01*
D02*
G37*
G36*
X187008Y302868D02*
Y295992D01*
X193884D01*
X193791Y296941D01*
X193368Y298334D01*
X192682Y299618D01*
X191759Y300743D01*
X190633Y301666D01*
X189349Y302352D01*
X187957Y302775D01*
X187008Y302868D01*
D02*
G37*
G36*
X363992Y294992D02*
X357116D01*
X357209Y294043D01*
X357632Y292651D01*
X358318Y291367D01*
X359242Y290242D01*
X360367Y289318D01*
X361650Y288632D01*
X363043Y288209D01*
X363992Y288116D01*
Y294992D01*
D02*
G37*
G36*
X345884D02*
X339008D01*
Y288116D01*
X339956Y288209D01*
X341350Y288632D01*
X342633Y289318D01*
X343759Y290242D01*
X344682Y291367D01*
X345368Y292651D01*
X345791Y294043D01*
X345884Y294992D01*
D02*
G37*
G36*
X343614Y307700D02*
X342800D01*
Y306887D01*
X342841Y306895D01*
X343299Y307201D01*
X343605Y307659D01*
X343614Y307700D01*
D02*
G37*
G36*
X194400Y308100D02*
X193587D01*
X193595Y308059D01*
X193901Y307601D01*
X194359Y307295D01*
X194400Y307287D01*
Y308100D01*
D02*
G37*
G36*
X189413D02*
X188600D01*
Y307287D01*
X188641Y307295D01*
X189099Y307601D01*
X189405Y308059D01*
X189413Y308100D01*
D02*
G37*
G36*
X187600D02*
X186786D01*
X186795Y308059D01*
X187101Y307601D01*
X187559Y307295D01*
X187600Y307287D01*
Y308100D01*
D02*
G37*
G36*
X196213D02*
X195400D01*
Y307287D01*
X195441Y307295D01*
X195899Y307601D01*
X196205Y308059D01*
X196213Y308100D01*
D02*
G37*
G36*
X203514Y308300D02*
X202700D01*
Y307487D01*
X202741Y307495D01*
X203199Y307801D01*
X203505Y308259D01*
X203514Y308300D01*
D02*
G37*
G36*
X201700D02*
X200887D01*
X200895Y308259D01*
X201201Y307801D01*
X201659Y307495D01*
X201700Y307487D01*
Y308300D01*
D02*
G37*
G36*
X182013Y308200D02*
X181200D01*
Y307386D01*
X181241Y307395D01*
X181699Y307701D01*
X182005Y308159D01*
X182013Y308200D01*
D02*
G37*
G36*
X210513Y308000D02*
X209700D01*
Y307187D01*
X209741Y307195D01*
X210199Y307501D01*
X210505Y307959D01*
X210513Y308000D01*
D02*
G37*
G36*
X361600Y307800D02*
X360787D01*
X360795Y307759D01*
X361101Y307301D01*
X361559Y306995D01*
X361600Y306986D01*
Y307800D01*
D02*
G37*
G36*
X356913Y307700D02*
X356100D01*
Y306887D01*
X356141Y306895D01*
X356599Y307201D01*
X356905Y307659D01*
X356913Y307700D01*
D02*
G37*
G36*
X355100D02*
X354287D01*
X354295Y307659D01*
X354601Y307201D01*
X355059Y306895D01*
X355100Y306887D01*
Y307700D01*
D02*
G37*
G36*
X363414Y307800D02*
X362600D01*
Y306986D01*
X362641Y306995D01*
X363099Y307301D01*
X363405Y307759D01*
X363414Y307800D01*
D02*
G37*
G36*
X208700Y308000D02*
X207887D01*
X207895Y307959D01*
X208201Y307501D01*
X208659Y307195D01*
X208700Y307187D01*
Y308000D01*
D02*
G37*
G36*
X370013Y307800D02*
X369200D01*
Y306986D01*
X369241Y306995D01*
X369699Y307301D01*
X370005Y307759D01*
X370013Y307800D01*
D02*
G37*
G36*
X368200D02*
X367387D01*
X367395Y307759D01*
X367701Y307301D01*
X368159Y306995D01*
X368200Y306986D01*
Y307800D01*
D02*
G37*
G36*
X304761Y346750D02*
X302300D01*
Y345176D01*
X304761D01*
Y346750D01*
D02*
G37*
G36*
X301300D02*
X298839D01*
Y345176D01*
X301300D01*
Y346750D01*
D02*
G37*
G36*
X203700Y345614D02*
Y344800D01*
X204514D01*
X204505Y344841D01*
X204199Y345299D01*
X203741Y345605D01*
X203700Y345614D01*
D02*
G37*
G36*
X250000Y346850D02*
X247539D01*
Y345276D01*
X250000D01*
Y346850D01*
D02*
G37*
G36*
X304761Y349325D02*
X302300D01*
Y347750D01*
X304761D01*
Y349325D01*
D02*
G37*
G36*
X301300D02*
X298839D01*
Y347750D01*
X301300D01*
Y349325D01*
D02*
G37*
G36*
X253461Y346850D02*
X251000D01*
Y345276D01*
X253461D01*
Y346850D01*
D02*
G37*
G36*
X202700Y345614D02*
X202659Y345605D01*
X202201Y345299D01*
X201895Y344841D01*
X201887Y344800D01*
X202700D01*
Y345614D01*
D02*
G37*
G36*
X355114Y342500D02*
X354300D01*
Y341687D01*
X354341Y341695D01*
X354799Y342001D01*
X355105Y342459D01*
X355114Y342500D01*
D02*
G37*
G36*
X353300D02*
X352486D01*
X352495Y342459D01*
X352801Y342001D01*
X353259Y341695D01*
X353300Y341687D01*
Y342500D01*
D02*
G37*
G36*
X354300Y338714D02*
Y337900D01*
X355114D01*
X355105Y337941D01*
X354799Y338399D01*
X354341Y338705D01*
X354300Y338714D01*
D02*
G37*
G36*
X202700Y343800D02*
X201887D01*
X201895Y343759D01*
X202201Y343301D01*
X202659Y342995D01*
X202700Y342986D01*
Y343800D01*
D02*
G37*
G36*
X354300Y344314D02*
Y343500D01*
X355114D01*
X355105Y343541D01*
X354799Y343999D01*
X354341Y344305D01*
X354300Y344314D01*
D02*
G37*
G36*
X353300D02*
X353259Y344305D01*
X352801Y343999D01*
X352495Y343541D01*
X352486Y343500D01*
X353300D01*
Y344314D01*
D02*
G37*
G36*
X204514Y343800D02*
X203700D01*
Y342986D01*
X203741Y342995D01*
X204199Y343301D01*
X204505Y343759D01*
X204514Y343800D01*
D02*
G37*
G36*
X250000Y349425D02*
X247539D01*
Y347850D01*
X250000D01*
Y349425D01*
D02*
G37*
G36*
X361613Y349100D02*
X360800D01*
Y348287D01*
X360841Y348295D01*
X361299Y348601D01*
X361605Y349059D01*
X361613Y349100D01*
D02*
G37*
G36*
X359800D02*
X358986D01*
X358995Y349059D01*
X359301Y348601D01*
X359759Y348295D01*
X359800Y348287D01*
Y349100D01*
D02*
G37*
G36*
X347814D02*
X347000D01*
Y348287D01*
X347041Y348295D01*
X347499Y348601D01*
X347805Y349059D01*
X347814Y349100D01*
D02*
G37*
G36*
X331900Y349400D02*
X331086D01*
X331095Y349359D01*
X331401Y348901D01*
X331859Y348595D01*
X331900Y348587D01*
Y349400D01*
D02*
G37*
G36*
X218513Y349800D02*
X217700D01*
Y348987D01*
X217741Y348995D01*
X218199Y349301D01*
X218505Y349759D01*
X218513Y349800D01*
D02*
G37*
G36*
X216700D02*
X215886D01*
X215895Y349759D01*
X216201Y349301D01*
X216659Y348995D01*
X216700Y348987D01*
Y349800D01*
D02*
G37*
G36*
X333714Y349400D02*
X332900D01*
Y348587D01*
X332941Y348595D01*
X333399Y348901D01*
X333705Y349359D01*
X333714Y349400D01*
D02*
G37*
G36*
X346000Y349100D02*
X345186D01*
X345195Y349059D01*
X345501Y348601D01*
X345959Y348295D01*
X346000Y348287D01*
Y349100D01*
D02*
G37*
G36*
X354714Y348800D02*
X353900D01*
Y347987D01*
X353941Y347995D01*
X354399Y348301D01*
X354705Y348759D01*
X354714Y348800D01*
D02*
G37*
G36*
X352900D02*
X352086D01*
X352095Y348759D01*
X352401Y348301D01*
X352859Y347995D01*
X352900Y347987D01*
Y348800D01*
D02*
G37*
G36*
X253461Y349425D02*
X251000D01*
Y347850D01*
X253461D01*
Y349425D01*
D02*
G37*
G36*
X366100Y348900D02*
X365286D01*
X365295Y348859D01*
X365601Y348401D01*
X366059Y348095D01*
X366100Y348087D01*
Y348900D01*
D02*
G37*
G36*
X340813Y349100D02*
X340000D01*
Y348287D01*
X340041Y348295D01*
X340499Y348601D01*
X340805Y349059D01*
X340813Y349100D01*
D02*
G37*
G36*
X339000D02*
X338187D01*
X338195Y349059D01*
X338501Y348601D01*
X338959Y348295D01*
X339000Y348287D01*
Y349100D01*
D02*
G37*
G36*
X367914Y348900D02*
X367100D01*
Y348087D01*
X367141Y348095D01*
X367599Y348401D01*
X367905Y348859D01*
X367914Y348900D01*
D02*
G37*
G36*
X353300Y338714D02*
X353259Y338705D01*
X352801Y338399D01*
X352495Y337941D01*
X352486Y337900D01*
X353300D01*
Y338714D01*
D02*
G37*
G36*
X203000Y322113D02*
X202959Y322105D01*
X202501Y321799D01*
X202195Y321341D01*
X202186Y321300D01*
X203000D01*
Y322113D01*
D02*
G37*
G36*
X354600Y321113D02*
Y320300D01*
X355414D01*
X355405Y320341D01*
X355099Y320799D01*
X354641Y321105D01*
X354600Y321113D01*
D02*
G37*
G36*
X353600D02*
X353559Y321105D01*
X353101Y320799D01*
X352795Y320341D01*
X352786Y320300D01*
X353600D01*
Y321113D01*
D02*
G37*
G36*
X204000Y322113D02*
Y321300D01*
X204814D01*
X204805Y321341D01*
X204499Y321799D01*
X204041Y322105D01*
X204000Y322113D01*
D02*
G37*
G36*
X353500Y326613D02*
X353459Y326605D01*
X353001Y326299D01*
X352695Y325841D01*
X352687Y325800D01*
X353500D01*
Y326613D01*
D02*
G37*
G36*
X355313Y324800D02*
X354500D01*
Y323987D01*
X354541Y323995D01*
X354999Y324301D01*
X355305Y324759D01*
X355313Y324800D01*
D02*
G37*
G36*
X353500D02*
X352687D01*
X352695Y324759D01*
X353001Y324301D01*
X353459Y323995D01*
X353500Y323987D01*
Y324800D01*
D02*
G37*
G36*
X204814Y320300D02*
X204000D01*
Y319486D01*
X204041Y319495D01*
X204499Y319801D01*
X204805Y320259D01*
X204814Y320300D01*
D02*
G37*
G36*
X353700Y315213D02*
X353659Y315205D01*
X353201Y314899D01*
X352895Y314441D01*
X352887Y314400D01*
X353700D01*
Y315213D01*
D02*
G37*
G36*
X204100D02*
Y314400D01*
X204913D01*
X204905Y314441D01*
X204599Y314899D01*
X204141Y315205D01*
X204100Y315213D01*
D02*
G37*
G36*
X203100D02*
X203059Y315205D01*
X202601Y314899D01*
X202295Y314441D01*
X202287Y314400D01*
X203100D01*
Y315213D01*
D02*
G37*
G36*
X354700D02*
Y314400D01*
X355514D01*
X355505Y314441D01*
X355199Y314899D01*
X354741Y315205D01*
X354700Y315213D01*
D02*
G37*
G36*
X203000Y320300D02*
X202186D01*
X202195Y320259D01*
X202501Y319801D01*
X202959Y319495D01*
X203000Y319486D01*
Y320300D01*
D02*
G37*
G36*
X355414Y319300D02*
X354600D01*
Y318486D01*
X354641Y318495D01*
X355099Y318801D01*
X355405Y319259D01*
X355414Y319300D01*
D02*
G37*
G36*
X353600D02*
X352786D01*
X352795Y319259D01*
X353101Y318801D01*
X353559Y318495D01*
X353600Y318486D01*
Y319300D01*
D02*
G37*
G36*
X354500Y326613D02*
Y325800D01*
X355313D01*
X355305Y325841D01*
X354999Y326299D01*
X354541Y326605D01*
X354500Y326613D01*
D02*
G37*
G36*
X204613Y336700D02*
X203800D01*
Y335887D01*
X203841Y335895D01*
X204299Y336201D01*
X204605Y336659D01*
X204613Y336700D01*
D02*
G37*
G36*
X202800D02*
X201987D01*
X201995Y336659D01*
X202301Y336201D01*
X202759Y335895D01*
X202800Y335887D01*
Y336700D01*
D02*
G37*
G36*
X354300Y333014D02*
Y332200D01*
X355114D01*
X355105Y332241D01*
X354799Y332699D01*
X354341Y333005D01*
X354300Y333014D01*
D02*
G37*
G36*
X353300Y336900D02*
X352486D01*
X352495Y336859D01*
X352801Y336401D01*
X353259Y336095D01*
X353300Y336087D01*
Y336900D01*
D02*
G37*
G36*
X203800Y338513D02*
Y337700D01*
X204613D01*
X204605Y337741D01*
X204299Y338199D01*
X203841Y338505D01*
X203800Y338513D01*
D02*
G37*
G36*
X202800D02*
X202759Y338505D01*
X202301Y338199D01*
X201995Y337741D01*
X201987Y337700D01*
X202800D01*
Y338513D01*
D02*
G37*
G36*
X355114Y336900D02*
X354300D01*
Y336087D01*
X354341Y336095D01*
X354799Y336401D01*
X355105Y336859D01*
X355114Y336900D01*
D02*
G37*
G36*
X353300Y333014D02*
X353259Y333005D01*
X352801Y332699D01*
X352495Y332241D01*
X352486Y332200D01*
X353300D01*
Y333014D01*
D02*
G37*
G36*
X203100Y330913D02*
X203059Y330905D01*
X202601Y330599D01*
X202295Y330141D01*
X202287Y330100D01*
X203100D01*
Y330913D01*
D02*
G37*
G36*
X204913Y329100D02*
X204100D01*
Y328287D01*
X204141Y328295D01*
X204599Y328601D01*
X204905Y329059D01*
X204913Y329100D01*
D02*
G37*
G36*
X203100D02*
X202287D01*
X202295Y329059D01*
X202601Y328601D01*
X203059Y328295D01*
X203100Y328287D01*
Y329100D01*
D02*
G37*
G36*
X204100Y330913D02*
Y330100D01*
X204913D01*
X204905Y330141D01*
X204599Y330599D01*
X204141Y330905D01*
X204100Y330913D01*
D02*
G37*
G36*
X199700Y381480D02*
X198411Y381310D01*
X197210Y380813D01*
X196179Y380021D01*
X195387Y378990D01*
X194890Y377789D01*
X194720Y376500D01*
X194890Y375211D01*
X195387Y374010D01*
X196179Y372979D01*
X197210Y372187D01*
X198411Y371690D01*
X199700Y371520D01*
X200989Y371690D01*
X202190Y372187D01*
X203221Y372979D01*
X204012Y374010D01*
X204199Y374461D01*
X220655D01*
X225661Y369455D01*
Y319700D01*
X225816Y318920D01*
X226258Y318258D01*
X229858Y314658D01*
X230520Y314216D01*
X231300Y314061D01*
X245200D01*
Y312100D01*
X255200D01*
Y320100D01*
X245200D01*
Y318139D01*
X232145D01*
X229739Y320545D01*
Y330851D01*
X229995Y332246D01*
X243806D01*
Y333676D01*
X245305Y333823D01*
X245345Y333625D01*
X245898Y332798D01*
X246725Y332245D01*
X247700Y332051D01*
X252700D01*
X253676Y332245D01*
X254502Y332798D01*
X255055Y333625D01*
X255249Y334600D01*
Y337600D01*
X255055Y338576D01*
X254502Y339402D01*
X253676Y339955D01*
X252700Y340149D01*
X247700D01*
X246725Y339955D01*
X245898Y339402D01*
X245345Y338576D01*
X245305Y338377D01*
X243806Y338524D01*
Y339954D01*
X229995D01*
X229739Y341349D01*
Y370300D01*
X229584Y371080D01*
X229142Y371742D01*
X222942Y377942D01*
X222280Y378384D01*
X221500Y378539D01*
X204199D01*
X204012Y378990D01*
X203221Y380021D01*
X202190Y380813D01*
X200989Y381310D01*
X199700Y381480D01*
D02*
G37*
G36*
X355114Y331200D02*
X354300D01*
Y330386D01*
X354341Y330395D01*
X354799Y330701D01*
X355105Y331159D01*
X355114Y331200D01*
D02*
G37*
G36*
X353300D02*
X352486D01*
X352495Y331159D01*
X352801Y330701D01*
X353259Y330395D01*
X353300Y330386D01*
Y331200D01*
D02*
G37*
G36*
X316314Y181100D02*
X315500D01*
Y180287D01*
X315541Y180295D01*
X315999Y180601D01*
X316305Y181059D01*
X316314Y181100D01*
D02*
G37*
G36*
X314500D02*
X313686D01*
X313695Y181059D01*
X314001Y180601D01*
X314459Y180295D01*
X314500Y180287D01*
Y181100D01*
D02*
G37*
G36*
X264714Y180600D02*
X263900D01*
Y179787D01*
X263941Y179795D01*
X264399Y180101D01*
X264705Y180559D01*
X264714Y180600D01*
D02*
G37*
G36*
X277700Y182314D02*
X277659Y182305D01*
X277201Y181999D01*
X276895Y181541D01*
X276887Y181500D01*
X277700D01*
Y182314D01*
D02*
G37*
G36*
X292600D02*
Y181500D01*
X293413D01*
X293405Y181541D01*
X293099Y181999D01*
X292641Y182305D01*
X292600Y182314D01*
D02*
G37*
G36*
X291600D02*
X291559Y182305D01*
X291101Y181999D01*
X290795Y181541D01*
X290787Y181500D01*
X291600D01*
Y182314D01*
D02*
G37*
G36*
X278700D02*
Y181500D01*
X279514D01*
X279505Y181541D01*
X279199Y181999D01*
X278741Y182305D01*
X278700Y182314D01*
D02*
G37*
G36*
X262900Y180600D02*
X262087D01*
X262095Y180559D01*
X262401Y180101D01*
X262859Y179795D01*
X262900Y179787D01*
Y180600D01*
D02*
G37*
G36*
X279514Y180500D02*
X278700D01*
Y179686D01*
X278741Y179695D01*
X279199Y180001D01*
X279505Y180459D01*
X279514Y180500D01*
D02*
G37*
G36*
X277700D02*
X276887D01*
X276895Y180459D01*
X277201Y180001D01*
X277659Y179695D01*
X277700Y179686D01*
Y180500D01*
D02*
G37*
G36*
X326000Y177321D02*
Y174300D01*
X329021D01*
X328845Y175186D01*
X328060Y176360D01*
X326886Y177145D01*
X326000Y177321D01*
D02*
G37*
G36*
X291600Y180500D02*
X290787D01*
X290795Y180459D01*
X291101Y180001D01*
X291559Y179695D01*
X291600Y179686D01*
Y180500D01*
D02*
G37*
G36*
X246614Y180600D02*
X245800D01*
Y179787D01*
X245841Y179795D01*
X246299Y180101D01*
X246605Y180559D01*
X246614Y180600D01*
D02*
G37*
G36*
X244800D02*
X243987D01*
X243995Y180559D01*
X244301Y180101D01*
X244759Y179795D01*
X244800Y179787D01*
Y180600D01*
D02*
G37*
G36*
X293413Y180500D02*
X292600D01*
Y179686D01*
X292641Y179695D01*
X293099Y180001D01*
X293405Y180459D01*
X293413Y180500D01*
D02*
G37*
G36*
X244800Y182413D02*
X244759Y182405D01*
X244301Y182099D01*
X243995Y181641D01*
X243987Y181600D01*
X244800D01*
Y182413D01*
D02*
G37*
G36*
X279313Y189400D02*
X278500D01*
Y188586D01*
X278541Y188595D01*
X278999Y188901D01*
X279305Y189359D01*
X279313Y189400D01*
D02*
G37*
G36*
X277500D02*
X276687D01*
X276695Y189359D01*
X277001Y188901D01*
X277459Y188595D01*
X277500Y188586D01*
Y189400D01*
D02*
G37*
G36*
X246013Y188100D02*
X245200D01*
Y187286D01*
X245241Y187295D01*
X245699Y187601D01*
X246005Y188059D01*
X246013Y188100D01*
D02*
G37*
G36*
X291000Y189400D02*
X290187D01*
X290195Y189359D01*
X290501Y188901D01*
X290959Y188595D01*
X291000Y188586D01*
Y189400D01*
D02*
G37*
G36*
X319314D02*
X318500D01*
Y188586D01*
X318541Y188595D01*
X318999Y188901D01*
X319305Y189359D01*
X319314Y189400D01*
D02*
G37*
G36*
X317500D02*
X316687D01*
X316695Y189359D01*
X317001Y188901D01*
X317459Y188595D01*
X317500Y188586D01*
Y189400D01*
D02*
G37*
G36*
X292813D02*
X292000D01*
Y188586D01*
X292041Y188595D01*
X292499Y188901D01*
X292805Y189359D01*
X292813Y189400D01*
D02*
G37*
G36*
X244200Y188100D02*
X243387D01*
X243395Y188059D01*
X243701Y187601D01*
X244159Y187295D01*
X244200Y187286D01*
Y188100D01*
D02*
G37*
G36*
X263900Y182413D02*
Y181600D01*
X264714D01*
X264705Y181641D01*
X264399Y182099D01*
X263941Y182405D01*
X263900Y182413D01*
D02*
G37*
G36*
X262900D02*
X262859Y182405D01*
X262401Y182099D01*
X262095Y181641D01*
X262087Y181600D01*
X262900D01*
Y182413D01*
D02*
G37*
G36*
X245800D02*
Y181600D01*
X246614D01*
X246605Y181641D01*
X246299Y182099D01*
X245841Y182405D01*
X245800Y182413D01*
D02*
G37*
G36*
X314500Y182913D02*
X314459Y182905D01*
X314001Y182599D01*
X313695Y182141D01*
X313686Y182100D01*
X314500D01*
Y182913D01*
D02*
G37*
G36*
X263913Y188000D02*
X263100D01*
Y187187D01*
X263141Y187195D01*
X263599Y187501D01*
X263905Y187959D01*
X263913Y188000D01*
D02*
G37*
G36*
X262100D02*
X261286D01*
X261295Y187959D01*
X261601Y187501D01*
X262059Y187195D01*
X262100Y187187D01*
Y188000D01*
D02*
G37*
G36*
X315500Y182913D02*
Y182100D01*
X316314D01*
X316305Y182141D01*
X315999Y182599D01*
X315541Y182905D01*
X315500Y182913D01*
D02*
G37*
G36*
X325000Y177321D02*
X324114Y177145D01*
X322940Y176360D01*
X322155Y175186D01*
X321979Y174300D01*
X325000D01*
Y177321D01*
D02*
G37*
G36*
X335000Y167321D02*
X334114Y167145D01*
X332940Y166360D01*
X332155Y165186D01*
X331979Y164300D01*
X335000D01*
Y167321D01*
D02*
G37*
G36*
X326000D02*
Y164300D01*
X329021D01*
X328845Y165186D01*
X328060Y166360D01*
X326886Y167145D01*
X326000Y167321D01*
D02*
G37*
G36*
X325000D02*
X324114Y167145D01*
X322940Y166360D01*
X322155Y165186D01*
X321979Y164300D01*
X325000D01*
Y167321D01*
D02*
G37*
G36*
X336000D02*
Y164300D01*
X339021D01*
X338845Y165186D01*
X338060Y166360D01*
X336886Y167145D01*
X336000Y167321D01*
D02*
G37*
G36*
X205500Y177930D02*
X203919Y177616D01*
X202579Y176721D01*
X201684Y175381D01*
X201370Y173800D01*
X201684Y172219D01*
X202579Y170879D01*
X203919Y169984D01*
X205500Y169669D01*
X207081Y169984D01*
X208421Y170879D01*
X209316Y172219D01*
X209630Y173800D01*
X209316Y175381D01*
X208421Y176721D01*
X207081Y177616D01*
X205500Y177930D01*
D02*
G37*
G36*
X349051Y167351D02*
X346000D01*
Y164300D01*
X349051D01*
Y167351D01*
D02*
G37*
G36*
X345000D02*
X341949D01*
Y164300D01*
X345000D01*
Y167351D01*
D02*
G37*
G36*
X296000Y167321D02*
Y164300D01*
X299021D01*
X298845Y165186D01*
X298060Y166360D01*
X296886Y167145D01*
X296000Y167321D01*
D02*
G37*
G36*
X335000Y163300D02*
X331979D01*
X332155Y162414D01*
X332940Y161240D01*
X334114Y160455D01*
X334471Y160384D01*
X334471Y160384D01*
X335000Y160279D01*
Y163300D01*
D02*
G37*
G36*
X325000D02*
X321979D01*
X322155Y162414D01*
X322940Y161240D01*
X324114Y160455D01*
X324471Y160384D01*
X324471Y160384D01*
X325000Y160279D01*
Y163300D01*
D02*
G37*
G36*
X295000D02*
X291979D01*
X292155Y162414D01*
X292940Y161240D01*
X294114Y160455D01*
X294471Y160384D01*
X294471Y160384D01*
X295000Y160279D01*
Y163300D01*
D02*
G37*
G36*
X299021D02*
X296000D01*
Y160279D01*
X296529Y160384D01*
X296529D01*
X296886Y160455D01*
X298060Y161240D01*
X298845Y162414D01*
X299021Y163300D01*
D02*
G37*
G36*
X295000Y167321D02*
X294114Y167145D01*
X292940Y166360D01*
X292155Y165186D01*
X291979Y164300D01*
X295000D01*
Y167321D01*
D02*
G37*
G36*
X329021Y163300D02*
X326000D01*
Y160279D01*
X326529Y160384D01*
X326529D01*
X326886Y160455D01*
X328060Y161240D01*
X328845Y162414D01*
X329021Y163300D01*
D02*
G37*
G36*
X339021D02*
X336000D01*
Y160279D01*
X336529Y160384D01*
X336529D01*
X336886Y160455D01*
X338060Y161240D01*
X338845Y162414D01*
X339021Y163300D01*
D02*
G37*
G36*
X215500Y177930D02*
X213919Y177616D01*
X212579Y176721D01*
X211684Y175381D01*
X211369Y173800D01*
X211684Y172219D01*
X212579Y170879D01*
X213919Y169984D01*
X215500Y169669D01*
X217081Y169984D01*
X218421Y170879D01*
X219316Y172219D01*
X219631Y173800D01*
X219316Y175381D01*
X218421Y176721D01*
X217081Y177616D01*
X215500Y177930D01*
D02*
G37*
G36*
X299021Y173300D02*
X296000D01*
Y170279D01*
X296886Y170455D01*
X298060Y171240D01*
X298845Y172414D01*
X299021Y173300D01*
D02*
G37*
G36*
X295000D02*
X291979D01*
X292155Y172414D01*
X292940Y171240D01*
X294114Y170455D01*
X295000Y170279D01*
Y173300D01*
D02*
G37*
G36*
X315500Y177930D02*
X313919Y177616D01*
X312579Y176721D01*
X311684Y175381D01*
X311369Y173800D01*
X311684Y172219D01*
X312579Y170879D01*
X313919Y169984D01*
X315500Y169669D01*
X317081Y169984D01*
X318421Y170879D01*
X319316Y172219D01*
X319631Y173800D01*
X319316Y175381D01*
X318421Y176721D01*
X317081Y177616D01*
X315500Y177930D01*
D02*
G37*
G36*
X325000Y173300D02*
X321979D01*
X322155Y172414D01*
X322940Y171240D01*
X324114Y170455D01*
X325000Y170279D01*
Y173300D01*
D02*
G37*
G36*
X296000Y177321D02*
Y174300D01*
X299021D01*
X298845Y175186D01*
X298060Y176360D01*
X296886Y177145D01*
X296000Y177321D01*
D02*
G37*
G36*
X295000D02*
X294114Y177145D01*
X292940Y176360D01*
X292155Y175186D01*
X291979Y174300D01*
X295000D01*
Y177321D01*
D02*
G37*
G36*
X329021Y173300D02*
X326000D01*
Y170279D01*
X326886Y170455D01*
X328060Y171240D01*
X328845Y172414D01*
X329021Y173300D01*
D02*
G37*
G36*
X305500Y177930D02*
X303919Y177616D01*
X302579Y176721D01*
X301684Y175381D01*
X301370Y173800D01*
X301684Y172219D01*
X302579Y170879D01*
X303919Y169984D01*
X305500Y169669D01*
X307081Y169984D01*
X308421Y170879D01*
X309316Y172219D01*
X309630Y173800D01*
X309316Y175381D01*
X308421Y176721D01*
X307081Y177616D01*
X305500Y177930D01*
D02*
G37*
G36*
X245500D02*
X243919Y177616D01*
X242579Y176721D01*
X241684Y175381D01*
X241370Y173800D01*
X241684Y172219D01*
X242579Y170879D01*
X243919Y169984D01*
X245500Y169669D01*
X247081Y169984D01*
X248421Y170879D01*
X249316Y172219D01*
X249630Y173800D01*
X249316Y175381D01*
X248421Y176721D01*
X247081Y177616D01*
X245500Y177930D01*
D02*
G37*
G36*
X235500D02*
X233919Y177616D01*
X232579Y176721D01*
X231684Y175381D01*
X231369Y173800D01*
X231684Y172219D01*
X232579Y170879D01*
X233919Y169984D01*
X235500Y169669D01*
X237081Y169984D01*
X238421Y170879D01*
X239316Y172219D01*
X239631Y173800D01*
X239316Y175381D01*
X238421Y176721D01*
X237081Y177616D01*
X235500Y177930D01*
D02*
G37*
G36*
X225500D02*
X223919Y177616D01*
X222579Y176721D01*
X221684Y175381D01*
X221370Y173800D01*
X221684Y172219D01*
X222579Y170879D01*
X223919Y169984D01*
X225500Y169669D01*
X227081Y169984D01*
X228421Y170879D01*
X229316Y172219D01*
X229630Y173800D01*
X229316Y175381D01*
X228421Y176721D01*
X227081Y177616D01*
X225500Y177930D01*
D02*
G37*
G36*
X255500D02*
X253919Y177616D01*
X252579Y176721D01*
X251684Y175381D01*
X251370Y173800D01*
X251684Y172219D01*
X252579Y170879D01*
X253919Y169984D01*
X255500Y169669D01*
X257081Y169984D01*
X258421Y170879D01*
X259316Y172219D01*
X259630Y173800D01*
X259316Y175381D01*
X258421Y176721D01*
X257081Y177616D01*
X255500Y177930D01*
D02*
G37*
G36*
X285500D02*
X283919Y177616D01*
X282579Y176721D01*
X281684Y175381D01*
X281369Y173800D01*
X281684Y172219D01*
X282579Y170879D01*
X283919Y169984D01*
X285500Y169669D01*
X287081Y169984D01*
X288421Y170879D01*
X289316Y172219D01*
X289631Y173800D01*
X289316Y175381D01*
X288421Y176721D01*
X287081Y177616D01*
X285500Y177930D01*
D02*
G37*
G36*
X275500D02*
X273919Y177616D01*
X272579Y176721D01*
X271684Y175381D01*
X271370Y173800D01*
X271684Y172219D01*
X272579Y170879D01*
X273919Y169984D01*
X275500Y169669D01*
X277081Y169984D01*
X278421Y170879D01*
X279316Y172219D01*
X279630Y173800D01*
X279316Y175381D01*
X278421Y176721D01*
X277081Y177616D01*
X275500Y177930D01*
D02*
G37*
G36*
X265500D02*
X263919Y177616D01*
X262579Y176721D01*
X261684Y175381D01*
X261369Y173800D01*
X261684Y172219D01*
X262579Y170879D01*
X263919Y169984D01*
X265500Y169669D01*
X267081Y169984D01*
X268421Y170879D01*
X269316Y172219D01*
X269631Y173800D01*
X269316Y175381D01*
X268421Y176721D01*
X267081Y177616D01*
X265500Y177930D01*
D02*
G37*
G36*
X245813Y246500D02*
X245000D01*
Y245687D01*
X245041Y245695D01*
X245499Y246001D01*
X245805Y246459D01*
X245813Y246500D01*
D02*
G37*
G36*
X244000D02*
X243186D01*
X243195Y246459D01*
X243501Y246001D01*
X243959Y245695D01*
X244000Y245687D01*
Y246500D01*
D02*
G37*
G36*
X249401Y246400D02*
X247826D01*
Y243939D01*
X249401D01*
Y246400D01*
D02*
G37*
G36*
Y249861D02*
X247826D01*
Y247400D01*
X249401D01*
Y249861D01*
D02*
G37*
G36*
X283300Y251049D02*
X278300D01*
X277325Y250855D01*
X276498Y250302D01*
X275102D01*
X274275Y250855D01*
X273300Y251049D01*
X268300D01*
X267324Y250855D01*
X266498Y250302D01*
X266335Y250059D01*
X258775D01*
Y250361D01*
X253625D01*
Y249663D01*
X253476Y249524D01*
X251976Y249861D01*
Y249861D01*
X250401D01*
Y246900D01*
Y243939D01*
X251976D01*
Y243939D01*
X253476Y244476D01*
X253625Y244337D01*
Y243439D01*
X258775D01*
Y243941D01*
X266335D01*
X266498Y243698D01*
X267324Y243145D01*
X268300Y242951D01*
X273300D01*
X274275Y243145D01*
X275102Y243698D01*
X275609D01*
X276976Y242396D01*
Y240622D01*
X276498Y240302D01*
X275102D01*
X274275Y240855D01*
X273300Y241049D01*
X268300D01*
X267324Y240855D01*
X266498Y240302D01*
X266468Y240259D01*
X258775D01*
Y240661D01*
X253625D01*
Y240127D01*
X253038Y239779D01*
X251976Y240161D01*
Y240161D01*
X250401D01*
Y237200D01*
Y234239D01*
X251976D01*
Y234239D01*
X253038Y234620D01*
X253625Y234273D01*
Y233739D01*
X258775D01*
Y234141D01*
X266201D01*
X266498Y233698D01*
X267324Y233145D01*
X268300Y232951D01*
X273300D01*
X274275Y233145D01*
X275102Y233698D01*
X275609D01*
X276976Y232396D01*
Y230622D01*
X276780Y230491D01*
X275102Y230302D01*
X274275Y230855D01*
X273300Y231049D01*
X268300D01*
X267324Y230855D01*
X266582Y230359D01*
X258675D01*
Y230761D01*
X253525D01*
Y230227D01*
X252938Y229879D01*
X251876Y230261D01*
Y230261D01*
X250301D01*
Y227300D01*
Y224339D01*
X251876D01*
Y224339D01*
X252938Y224721D01*
X253525Y224373D01*
Y223839D01*
X258675D01*
Y224241D01*
X266134D01*
X266498Y223698D01*
X267324Y223145D01*
X268300Y222951D01*
X273300D01*
X274275Y223145D01*
X275102Y223698D01*
X275609D01*
X276976Y222396D01*
Y220622D01*
X276498Y220302D01*
X275102D01*
X274275Y220855D01*
X273300Y221049D01*
X268300D01*
X267324Y220855D01*
X266498Y220302D01*
X266402Y220159D01*
X258775D01*
Y220561D01*
X253625D01*
Y220027D01*
X253038Y219679D01*
X251976Y220061D01*
Y220061D01*
X250401D01*
Y217100D01*
Y214139D01*
X251976D01*
Y214139D01*
X253038Y214521D01*
X253625Y214173D01*
Y213639D01*
X258775D01*
Y214041D01*
X266268D01*
X266498Y213698D01*
X267324Y213145D01*
X268300Y212951D01*
X273300D01*
X274275Y213145D01*
X275102Y213698D01*
X275609D01*
X276976Y212396D01*
Y210622D01*
X276498Y210302D01*
X275102D01*
X274275Y210855D01*
X273300Y211049D01*
X268300D01*
X267324Y210855D01*
X266498Y210302D01*
X266201Y209859D01*
X258675D01*
Y210261D01*
X253525D01*
Y209727D01*
X252938Y209380D01*
X251876Y209761D01*
Y209761D01*
X250301D01*
Y206800D01*
Y203839D01*
X251876D01*
Y203839D01*
X252938Y204221D01*
X253525Y203873D01*
Y203339D01*
X258675D01*
Y203741D01*
X266468D01*
X266498Y203698D01*
X267324Y203145D01*
X268300Y202951D01*
X273300D01*
X274275Y203145D01*
X275102Y203698D01*
X275609D01*
X276282Y203057D01*
X276147Y201231D01*
X275800Y201000D01*
X274364Y200845D01*
X274300Y200839D01*
X274275Y200855D01*
X273300Y201049D01*
X268300D01*
X267324Y200855D01*
X266498Y200302D01*
X266335Y200059D01*
X258875D01*
Y200361D01*
X253725D01*
Y199663D01*
X253576Y199524D01*
X252076Y199861D01*
Y199861D01*
X250501D01*
Y196900D01*
Y193939D01*
X252076D01*
Y193939D01*
X253576Y194476D01*
X253725Y194337D01*
Y193439D01*
X258875D01*
Y193941D01*
X266335D01*
X266498Y193698D01*
X267324Y193145D01*
X268300Y192951D01*
X273300D01*
X274275Y193145D01*
X274300Y193161D01*
X274364Y193155D01*
X275800Y193000D01*
X275800D01*
D01*
Y193000D01*
X275800Y193000D01*
X285800D01*
Y201000D01*
X284624D01*
Y203378D01*
X285102Y203698D01*
X285655Y204524D01*
X285849Y205500D01*
Y208500D01*
X285655Y209475D01*
X285102Y210302D01*
X284624Y210622D01*
Y213378D01*
X285102Y213698D01*
X285655Y214525D01*
X285849Y215500D01*
Y218500D01*
X285655Y219476D01*
X285102Y220302D01*
X284624Y220622D01*
Y223177D01*
X348112D01*
X348686Y221791D01*
X343198Y216302D01*
X342645Y215476D01*
X342451Y214500D01*
Y184356D01*
X335939Y177843D01*
X335500Y177930D01*
X333919Y177616D01*
X332579Y176721D01*
X331684Y175381D01*
X331369Y173800D01*
X331684Y172219D01*
X332579Y170879D01*
X333919Y169984D01*
X335500Y169669D01*
X337081Y169984D01*
X338421Y170879D01*
X339316Y172219D01*
X339527Y173282D01*
X339902Y173526D01*
X341527Y172850D01*
X341571Y172784D01*
X341684Y172219D01*
X342579Y170879D01*
X343919Y169984D01*
X345500Y169669D01*
X347081Y169984D01*
X348421Y170879D01*
X349316Y172219D01*
X349630Y173800D01*
X349543Y174239D01*
X358502Y183198D01*
X359055Y184025D01*
X359249Y185000D01*
Y201755D01*
X361145D01*
Y210645D01*
X352255D01*
Y201755D01*
X354151D01*
Y186056D01*
X346649Y178553D01*
X346060Y178634D01*
X345527Y180222D01*
X346802Y181498D01*
X347355Y182325D01*
X347549Y183300D01*
Y213444D01*
X355927Y221822D01*
X356700Y221668D01*
X358434Y222013D01*
X359905Y222995D01*
X360887Y224466D01*
X361232Y226200D01*
X360887Y227934D01*
X359905Y229405D01*
X358434Y230387D01*
X356700Y230732D01*
X356530Y230698D01*
X355900Y230823D01*
X284624D01*
Y233378D01*
X285102Y233698D01*
X285655Y234524D01*
X285849Y235500D01*
Y238500D01*
X285655Y239475D01*
X285102Y240302D01*
X284624Y240622D01*
Y243378D01*
X285102Y243698D01*
X285655Y244525D01*
X285849Y245500D01*
Y248500D01*
X285655Y249476D01*
X285102Y250302D01*
X284276Y250855D01*
X283300Y251049D01*
D02*
G37*
G36*
X245000Y248313D02*
Y247500D01*
X245813D01*
X245805Y247541D01*
X245499Y247999D01*
X245041Y248305D01*
X245000Y248313D01*
D02*
G37*
G36*
X244000D02*
X243959Y248305D01*
X243501Y247999D01*
X243195Y247541D01*
X243186Y247500D01*
X244000D01*
Y248313D01*
D02*
G37*
G36*
X245100Y238614D02*
Y237800D01*
X245914D01*
X245905Y237841D01*
X245599Y238299D01*
X245141Y238605D01*
X245100Y238614D01*
D02*
G37*
G36*
X249401Y236700D02*
X247826D01*
Y234239D01*
X249401D01*
Y236700D01*
D02*
G37*
G36*
X245200Y228913D02*
Y228100D01*
X246013D01*
X246005Y228141D01*
X245699Y228599D01*
X245241Y228905D01*
X245200Y228913D01*
D02*
G37*
G36*
X244200D02*
X244159Y228905D01*
X243701Y228599D01*
X243395Y228141D01*
X243387Y228100D01*
X244200D01*
Y228913D01*
D02*
G37*
G36*
X244100Y236800D02*
X243286D01*
X243295Y236759D01*
X243601Y236301D01*
X244059Y235995D01*
X244100Y235986D01*
Y236800D01*
D02*
G37*
G36*
Y238614D02*
X244059Y238605D01*
X243601Y238299D01*
X243295Y237841D01*
X243286Y237800D01*
X244100D01*
Y238614D01*
D02*
G37*
G36*
X249401Y240161D02*
X247826D01*
Y237700D01*
X249401D01*
Y240161D01*
D02*
G37*
G36*
X245914Y236800D02*
X245100D01*
Y235986D01*
X245141Y235995D01*
X245599Y236301D01*
X245905Y236759D01*
X245914Y236800D01*
D02*
G37*
G36*
X193884Y269008D02*
X187008D01*
Y262132D01*
X187957Y262225D01*
X189349Y262648D01*
X190633Y263334D01*
X191759Y264257D01*
X192682Y265383D01*
X193368Y266666D01*
X193791Y268059D01*
X193884Y269008D01*
D02*
G37*
G36*
X363992Y276884D02*
X363043Y276791D01*
X361650Y276368D01*
X360367Y275682D01*
X359242Y274759D01*
X358318Y273633D01*
X357632Y272350D01*
X357209Y270956D01*
X357116Y270008D01*
X363992D01*
Y276884D01*
D02*
G37*
G36*
X339008D02*
Y270008D01*
X345884D01*
X345791Y270956D01*
X345368Y272350D01*
X344682Y273633D01*
X343759Y274759D01*
X342633Y275682D01*
X341350Y276368D01*
X339956Y276791D01*
X339008Y276884D01*
D02*
G37*
G36*
X338008D02*
X337059Y276791D01*
X335666Y276368D01*
X334383Y275682D01*
X333257Y274759D01*
X332334Y273633D01*
X331648Y272350D01*
X331225Y270956D01*
X331132Y270008D01*
X338008D01*
Y276884D01*
D02*
G37*
G36*
X351500Y287480D02*
X350211Y287310D01*
X349010Y286812D01*
X347979Y286021D01*
X347187Y284990D01*
X347001Y284539D01*
X331600D01*
X330820Y284384D01*
X330158Y283942D01*
X322706Y276490D01*
X321084D01*
X320452Y276727D01*
X319661Y277990D01*
Y278175D01*
X319661Y278525D01*
Y283324D01*
X312739D01*
Y282839D01*
X304942D01*
X304855Y283276D01*
X304302Y284102D01*
X303475Y284655D01*
X302500Y284849D01*
X297500D01*
X296525Y284655D01*
X295698Y284102D01*
X295145Y283276D01*
X294951Y282300D01*
Y279300D01*
X295145Y278325D01*
X295698Y277498D01*
X296525Y276945D01*
X297500Y276751D01*
X302500D01*
X303475Y276945D01*
X304302Y277498D01*
X304855Y278325D01*
X304942Y278761D01*
X311337D01*
X312093Y278445D01*
X312739Y277261D01*
Y277025D01*
X312739Y276675D01*
Y272839D01*
X305000D01*
Y274800D01*
X295000D01*
Y266800D01*
X305000D01*
Y268761D01*
X313700D01*
X314480Y268916D01*
X315142Y269358D01*
X317642Y271858D01*
X317654Y271876D01*
X319661D01*
Y272411D01*
X323550D01*
X324331Y272566D01*
X324992Y273008D01*
X332445Y280461D01*
X347001D01*
X347187Y280010D01*
X347979Y278979D01*
X349010Y278187D01*
X350211Y277690D01*
X351500Y277520D01*
X352789Y277690D01*
X353990Y278187D01*
X355021Y278979D01*
X355813Y280010D01*
X356310Y281211D01*
X356480Y282500D01*
X356310Y283789D01*
X355813Y284990D01*
X355021Y286021D01*
X353990Y286812D01*
X352789Y287310D01*
X351500Y287480D01*
D02*
G37*
G36*
X254100Y295449D02*
X249100D01*
X248125Y295255D01*
X247298Y294702D01*
X246745Y293876D01*
X246551Y292900D01*
Y289900D01*
X246745Y288925D01*
X247298Y288098D01*
X248125Y287545D01*
X249100Y287351D01*
X254100D01*
X255076Y287545D01*
X255902Y288098D01*
X256455Y288925D01*
X256649Y289900D01*
Y292900D01*
X256455Y293876D01*
X255902Y294702D01*
X255076Y295255D01*
X254100Y295449D01*
D02*
G37*
G36*
X302500Y294849D02*
X297500D01*
X296525Y294655D01*
X295698Y294102D01*
X295145Y293275D01*
X294951Y292300D01*
Y289300D01*
X295145Y288324D01*
X295698Y287498D01*
X296525Y286945D01*
X297500Y286751D01*
X302500D01*
X303475Y286945D01*
X304302Y287498D01*
X304855Y288324D01*
X305049Y289300D01*
Y292300D01*
X304855Y293275D01*
X304302Y294102D01*
X303475Y294655D01*
X302500Y294849D01*
D02*
G37*
G36*
X199500Y287480D02*
X198211Y287310D01*
X197010Y286812D01*
X195979Y286021D01*
X195187Y284990D01*
X194690Y283789D01*
X194520Y282500D01*
X194690Y281211D01*
X195187Y280010D01*
X195979Y278979D01*
X197010Y278187D01*
X198211Y277690D01*
X199500Y277520D01*
X200789Y277690D01*
X201990Y278187D01*
X203021Y278979D01*
X203813Y280010D01*
X203999Y280461D01*
X220156D01*
X226908Y273709D01*
X227570Y273266D01*
X228350Y273111D01*
X232239D01*
Y272576D01*
X234541D01*
X237158Y269958D01*
X237820Y269516D01*
X238600Y269361D01*
X246600D01*
Y267400D01*
X256600D01*
Y275400D01*
X246600D01*
Y273439D01*
X240543D01*
X239161Y274821D01*
Y277375D01*
X239161Y277725D01*
Y277910D01*
X239952Y279173D01*
X240584Y279410D01*
X246648D01*
X246745Y278924D01*
X247298Y278098D01*
X248125Y277545D01*
X249100Y277351D01*
X254100D01*
X255076Y277545D01*
X255902Y278098D01*
X256455Y278924D01*
X256649Y279900D01*
Y282900D01*
X256455Y283875D01*
X255902Y284702D01*
X255076Y285255D01*
X254100Y285449D01*
X249100D01*
X248125Y285255D01*
X247298Y284702D01*
X246745Y283875D01*
X246668Y283489D01*
X239161D01*
Y284024D01*
X232239D01*
Y279225D01*
X232239Y278875D01*
Y278690D01*
X231448Y277427D01*
X230816Y277190D01*
X229195D01*
X222443Y283942D01*
X221781Y284384D01*
X221001Y284539D01*
X203999D01*
X203813Y284990D01*
X203021Y286021D01*
X201990Y286812D01*
X200789Y287310D01*
X199500Y287480D01*
D02*
G37*
G36*
X212992Y276884D02*
Y270008D01*
X219868D01*
X219775Y270956D01*
X219352Y272350D01*
X218666Y273633D01*
X217743Y274759D01*
X216617Y275682D01*
X215334Y276368D01*
X213941Y276791D01*
X212992Y276884D01*
D02*
G37*
G36*
X338008Y269008D02*
X331132D01*
X331225Y268059D01*
X331648Y266666D01*
X332334Y265383D01*
X333257Y264257D01*
X334383Y263334D01*
X335666Y262648D01*
X337059Y262225D01*
X338008Y262132D01*
Y269008D01*
D02*
G37*
G36*
X219868D02*
X212992D01*
Y262132D01*
X213941Y262225D01*
X215334Y262648D01*
X216617Y263334D01*
X217743Y264257D01*
X218666Y265383D01*
X219352Y266666D01*
X219775Y268059D01*
X219868Y269008D01*
D02*
G37*
G36*
X211992D02*
X205116D01*
X205209Y268059D01*
X205632Y266666D01*
X206318Y265383D01*
X207242Y264257D01*
X208367Y263334D01*
X209650Y262648D01*
X211044Y262225D01*
X211992Y262132D01*
Y269008D01*
D02*
G37*
G36*
X345884D02*
X339008D01*
Y262132D01*
X339956Y262225D01*
X341350Y262648D01*
X342633Y263334D01*
X343759Y264257D01*
X344682Y265383D01*
X345368Y266666D01*
X345791Y268059D01*
X345884Y269008D01*
D02*
G37*
G36*
X211992Y276884D02*
X211044Y276791D01*
X209650Y276368D01*
X208367Y275682D01*
X207242Y274759D01*
X206318Y273633D01*
X205632Y272350D01*
X205209Y270956D01*
X205116Y270008D01*
X211992D01*
Y276884D01*
D02*
G37*
G36*
X187008D02*
Y270008D01*
X193884D01*
X193791Y270956D01*
X193368Y272350D01*
X192682Y273633D01*
X191759Y274759D01*
X190633Y275682D01*
X189349Y276368D01*
X187957Y276791D01*
X187008Y276884D01*
D02*
G37*
G36*
X363992Y269008D02*
X357116D01*
X357209Y268059D01*
X357632Y266666D01*
X358318Y265383D01*
X359242Y264257D01*
X360367Y263334D01*
X361650Y262648D01*
X363043Y262225D01*
X363992Y262132D01*
Y269008D01*
D02*
G37*
G36*
X249301Y230261D02*
X247726D01*
Y227800D01*
X249301D01*
Y230261D01*
D02*
G37*
G36*
X249501Y196400D02*
X247926D01*
Y193939D01*
X249501D01*
Y196400D01*
D02*
G37*
G36*
X318500Y191214D02*
Y190400D01*
X319314D01*
X319305Y190441D01*
X318999Y190899D01*
X318541Y191205D01*
X318500Y191214D01*
D02*
G37*
G36*
X317500D02*
X317459Y191205D01*
X317001Y190899D01*
X316695Y190441D01*
X316687Y190400D01*
X317500D01*
Y191214D01*
D02*
G37*
G36*
X244400Y196300D02*
X243586D01*
X243595Y196259D01*
X243901Y195801D01*
X244359Y195495D01*
X244400Y195486D01*
Y196300D01*
D02*
G37*
G36*
X245400Y198114D02*
Y197300D01*
X246214D01*
X246205Y197341D01*
X245899Y197799D01*
X245441Y198105D01*
X245400Y198114D01*
D02*
G37*
G36*
X244400D02*
X244359Y198105D01*
X243901Y197799D01*
X243595Y197341D01*
X243586Y197300D01*
X244400D01*
Y198114D01*
D02*
G37*
G36*
X246214Y196300D02*
X245400D01*
Y195486D01*
X245441Y195495D01*
X245899Y195801D01*
X246205Y196259D01*
X246214Y196300D01*
D02*
G37*
G36*
X292000Y191214D02*
Y190400D01*
X292813D01*
X292805Y190441D01*
X292499Y190899D01*
X292041Y191205D01*
X292000Y191214D01*
D02*
G37*
G36*
X244200Y189913D02*
X244159Y189905D01*
X243701Y189599D01*
X243395Y189141D01*
X243387Y189100D01*
X244200D01*
Y189913D01*
D02*
G37*
G36*
X263100Y189813D02*
Y189000D01*
X263913D01*
X263905Y189041D01*
X263599Y189499D01*
X263141Y189805D01*
X263100Y189813D01*
D02*
G37*
G36*
X262100D02*
X262059Y189805D01*
X261601Y189499D01*
X261295Y189041D01*
X261286Y189000D01*
X262100D01*
Y189813D01*
D02*
G37*
G36*
X245200Y189913D02*
Y189100D01*
X246013D01*
X246005Y189141D01*
X245699Y189599D01*
X245241Y189905D01*
X245200Y189913D01*
D02*
G37*
G36*
X291000Y191214D02*
X290959Y191205D01*
X290501Y190899D01*
X290195Y190441D01*
X290187Y190400D01*
X291000D01*
Y191214D01*
D02*
G37*
G36*
X278500D02*
Y190400D01*
X279313D01*
X279305Y190441D01*
X278999Y190899D01*
X278541Y191205D01*
X278500Y191214D01*
D02*
G37*
G36*
X277500D02*
X277459Y191205D01*
X277001Y190899D01*
X276695Y190441D01*
X276687Y190400D01*
X277500D01*
Y191214D01*
D02*
G37*
G36*
X249501Y199861D02*
X247926D01*
Y197400D01*
X249501D01*
Y199861D01*
D02*
G37*
G36*
X245400Y218413D02*
Y217600D01*
X246214D01*
X246205Y217641D01*
X245899Y218099D01*
X245441Y218405D01*
X245400Y218413D01*
D02*
G37*
G36*
X244400D02*
X244359Y218405D01*
X243901Y218099D01*
X243595Y217641D01*
X243586Y217600D01*
X244400D01*
Y218413D01*
D02*
G37*
G36*
X246214Y216600D02*
X245400D01*
Y215787D01*
X245441Y215795D01*
X245899Y216101D01*
X246205Y216559D01*
X246214Y216600D01*
D02*
G37*
G36*
X249401Y220061D02*
X247826D01*
Y217600D01*
X249401D01*
Y220061D01*
D02*
G37*
G36*
X246013Y227100D02*
X245200D01*
Y226287D01*
X245241Y226295D01*
X245699Y226601D01*
X246005Y227059D01*
X246013Y227100D01*
D02*
G37*
G36*
X244200D02*
X243387D01*
X243395Y227059D01*
X243701Y226601D01*
X244159Y226295D01*
X244200Y226287D01*
Y227100D01*
D02*
G37*
G36*
X249301Y226800D02*
X247726D01*
Y224339D01*
X249301D01*
Y226800D01*
D02*
G37*
G36*
X244400Y216600D02*
X243586D01*
X243595Y216559D01*
X243901Y216101D01*
X244359Y215795D01*
X244400Y215787D01*
Y216600D01*
D02*
G37*
G36*
X246013Y206500D02*
X245200D01*
Y205686D01*
X245241Y205695D01*
X245699Y206001D01*
X246005Y206459D01*
X246013Y206500D01*
D02*
G37*
G36*
X244200D02*
X243387D01*
X243395Y206459D01*
X243701Y206001D01*
X244159Y205695D01*
X244200Y205686D01*
Y206500D01*
D02*
G37*
G36*
X249301Y206300D02*
X247726D01*
Y203839D01*
X249301D01*
Y206300D01*
D02*
G37*
G36*
Y209761D02*
X247726D01*
Y207300D01*
X249301D01*
Y209761D01*
D02*
G37*
G36*
X249401Y216600D02*
X247826D01*
Y214139D01*
X249401D01*
Y216600D01*
D02*
G37*
G36*
X245200Y208313D02*
Y207500D01*
X246013D01*
X246005Y207541D01*
X245699Y207999D01*
X245241Y208305D01*
X245200Y208313D01*
D02*
G37*
G36*
X244200D02*
X244159Y208305D01*
X243701Y207999D01*
X243395Y207541D01*
X243387Y207500D01*
X244200D01*
Y208313D01*
D02*
G37*
G36*
X188700Y350100D02*
X187887D01*
X187895Y350059D01*
X188201Y349601D01*
X188659Y349295D01*
X188700Y349287D01*
Y350100D01*
D02*
G37*
G36*
X198013Y415800D02*
X197200D01*
Y414987D01*
X197241Y414995D01*
X197699Y415301D01*
X198005Y415759D01*
X198013Y415800D01*
D02*
G37*
G36*
X196200D02*
X195387D01*
X195395Y415759D01*
X195701Y415301D01*
X196159Y414995D01*
X196200Y414987D01*
Y415800D01*
D02*
G37*
G36*
X197200Y413213D02*
Y412400D01*
X198013D01*
X198005Y412441D01*
X197699Y412899D01*
X197241Y413205D01*
X197200Y413213D01*
D02*
G37*
G36*
X225100Y419316D02*
X224673Y419260D01*
X223809Y418902D01*
X223067Y418333D01*
X222498Y417591D01*
X222140Y416727D01*
X222084Y416300D01*
X225100D01*
Y419316D01*
D02*
G37*
G36*
X256100D02*
Y416300D01*
X259116D01*
X259060Y416727D01*
X258702Y417591D01*
X258133Y418333D01*
X257391Y418902D01*
X256527Y419260D01*
X256100Y419316D01*
D02*
G37*
G36*
X255100D02*
X254673Y419260D01*
X253809Y418902D01*
X253067Y418333D01*
X252498Y417591D01*
X252140Y416727D01*
X252084Y416300D01*
X255100D01*
Y419316D01*
D02*
G37*
G36*
X226100D02*
Y416300D01*
X229116D01*
X229060Y416727D01*
X228702Y417591D01*
X228133Y418333D01*
X227391Y418902D01*
X226527Y419260D01*
X226100Y419316D01*
D02*
G37*
G36*
X196200Y413213D02*
X196159Y413205D01*
X195701Y412899D01*
X195395Y412441D01*
X195387Y412400D01*
X196200D01*
Y413213D01*
D02*
G37*
G36*
X345600Y419886D02*
X344542Y419747D01*
X343557Y419339D01*
X342711Y418689D01*
X342061Y417843D01*
X341653Y416858D01*
X341514Y415800D01*
X341653Y414742D01*
X342061Y413757D01*
X342711Y412911D01*
X343557Y412261D01*
X344542Y411853D01*
X345600Y411714D01*
X346658Y411853D01*
X347643Y412261D01*
X348489Y412911D01*
X349139Y413757D01*
X349547Y414742D01*
X349686Y415800D01*
X349547Y416858D01*
X349139Y417843D01*
X348489Y418689D01*
X347643Y419339D01*
X346658Y419747D01*
X345600Y419886D01*
D02*
G37*
G36*
X325600D02*
X324542Y419747D01*
X323557Y419339D01*
X322711Y418689D01*
X322061Y417843D01*
X321653Y416858D01*
X321514Y415800D01*
X321653Y414742D01*
X322061Y413757D01*
X322711Y412911D01*
X323557Y412261D01*
X324542Y411853D01*
X325600Y411714D01*
X326658Y411853D01*
X327643Y412261D01*
X328489Y412911D01*
X329139Y413757D01*
X329547Y414742D01*
X329686Y415800D01*
X329547Y416858D01*
X329139Y417843D01*
X328489Y418689D01*
X327643Y419339D01*
X326658Y419747D01*
X325600Y419886D01*
D02*
G37*
G36*
X315600D02*
X314542Y419747D01*
X313557Y419339D01*
X312711Y418689D01*
X312061Y417843D01*
X311653Y416858D01*
X311514Y415800D01*
X311653Y414742D01*
X312061Y413757D01*
X312711Y412911D01*
X313557Y412261D01*
X314542Y411853D01*
X315600Y411714D01*
X316658Y411853D01*
X317643Y412261D01*
X318489Y412911D01*
X319139Y413757D01*
X319547Y414742D01*
X319686Y415800D01*
X319547Y416858D01*
X319139Y417843D01*
X318489Y418689D01*
X317643Y419339D01*
X316658Y419747D01*
X315600Y419886D01*
D02*
G37*
G36*
X225100Y415300D02*
X222084D01*
X222140Y414873D01*
X222498Y414009D01*
X223067Y413267D01*
X223809Y412698D01*
X224673Y412340D01*
X225100Y412284D01*
Y415300D01*
D02*
G37*
G36*
X259116D02*
X256100D01*
Y412284D01*
X256527Y412340D01*
X257391Y412698D01*
X258133Y413267D01*
X258702Y414009D01*
X259060Y414873D01*
X259116Y415300D01*
D02*
G37*
G36*
X255100D02*
X252084D01*
X252140Y414873D01*
X252498Y414009D01*
X253067Y413267D01*
X253809Y412698D01*
X254673Y412340D01*
X255100Y412284D01*
Y415300D01*
D02*
G37*
G36*
X229116D02*
X226100D01*
Y412284D01*
X226527Y412340D01*
X227391Y412698D01*
X228133Y413267D01*
X228702Y414009D01*
X229060Y414873D01*
X229116Y415300D01*
D02*
G37*
G36*
X196200Y417614D02*
X196159Y417605D01*
X195701Y417299D01*
X195395Y416841D01*
X195387Y416800D01*
X196200D01*
Y417614D01*
D02*
G37*
G36*
X269700Y420200D02*
X268796D01*
X268780Y420181D01*
X268751Y420146D01*
X268633Y420001D01*
X268621Y419987D01*
X268615Y419980D01*
X268609Y419973D01*
X268607Y419970D01*
X268600Y419965D01*
X268568Y419944D01*
X268471Y419880D01*
X268338Y419793D01*
X268315Y419778D01*
X268040Y419597D01*
X268040Y419597D01*
X267645Y419337D01*
X267643Y419339D01*
X266658Y419747D01*
X265600Y419886D01*
X264542Y419747D01*
X263557Y419339D01*
X262711Y418689D01*
X262061Y417843D01*
X261653Y416858D01*
X261514Y415800D01*
X261653Y414742D01*
X262061Y413757D01*
X262711Y412911D01*
X263557Y412261D01*
X264542Y411853D01*
X265600Y411714D01*
X266658Y411853D01*
X267643Y412261D01*
X268489Y412911D01*
X269139Y413757D01*
X269547Y414742D01*
X269686Y415800D01*
X269547Y416858D01*
X269139Y417843D01*
X268919Y418129D01*
X269158Y418537D01*
X269158Y418537D01*
X269265Y418720D01*
X269335Y418840D01*
X269340Y418848D01*
X269344Y418855D01*
X269345Y418857D01*
X269347Y418860D01*
X269379Y418891D01*
X269478Y418983D01*
X269612Y419109D01*
X269615Y419111D01*
X269660Y419154D01*
X269700Y419192D01*
Y420200D01*
D02*
G37*
G36*
X299700Y420400D02*
X298886D01*
X298887Y420395D01*
X298895Y420359D01*
X298906Y420262D01*
X297788Y419289D01*
X297643Y419339D01*
X297637Y419341D01*
X297524Y419388D01*
X297524D01*
X296658Y419747D01*
X295600Y419886D01*
X294542Y419747D01*
X293557Y419339D01*
X292711Y418689D01*
X292061Y417843D01*
X291653Y416858D01*
X291514Y415800D01*
X291653Y414742D01*
X292061Y413757D01*
X292711Y412911D01*
X293557Y412261D01*
X294542Y411853D01*
X295600Y411714D01*
X296658Y411853D01*
X297643Y412261D01*
X298489Y412911D01*
X299139Y413757D01*
X299547Y414742D01*
X299686Y415800D01*
X299547Y416858D01*
X299139Y417843D01*
X298965Y418069D01*
X298946Y418094D01*
X298674Y418449D01*
X298680Y418457D01*
X298681Y418457D01*
X298710Y418491D01*
X298799Y418595D01*
X299438Y419338D01*
X299555Y419473D01*
X299628Y419558D01*
X299659Y419595D01*
X299700Y419587D01*
Y420400D01*
D02*
G37*
G36*
X341714Y420100D02*
X340900D01*
Y419286D01*
X340941Y419295D01*
X341399Y419601D01*
X341705Y420059D01*
X341714Y420100D01*
D02*
G37*
G36*
X189000Y420200D02*
X188187D01*
X188195Y420159D01*
X188501Y419701D01*
X188959Y419395D01*
X189000Y419386D01*
Y420200D01*
D02*
G37*
G36*
X197813D02*
X197000D01*
Y419386D01*
X197041Y419395D01*
X197499Y419701D01*
X197805Y420159D01*
X197813Y420200D01*
D02*
G37*
G36*
X196000D02*
X195186D01*
X195195Y420159D01*
X195501Y419701D01*
X195959Y419395D01*
X196000Y419386D01*
Y420200D01*
D02*
G37*
G36*
X190814D02*
X190000D01*
Y419386D01*
X190041Y419395D01*
X190499Y419701D01*
X190805Y420159D01*
X190814Y420200D01*
D02*
G37*
G36*
X311714Y420100D02*
X310900D01*
Y419286D01*
X310941Y419295D01*
X311399Y419601D01*
X311705Y420059D01*
X311714Y420100D01*
D02*
G37*
G36*
X364314Y418600D02*
X363500D01*
Y417787D01*
X363541Y417795D01*
X363999Y418101D01*
X364305Y418559D01*
X364314Y418600D01*
D02*
G37*
G36*
X362500D02*
X361686D01*
X361695Y418559D01*
X362001Y418101D01*
X362459Y417795D01*
X362500Y417787D01*
Y418600D01*
D02*
G37*
G36*
X197200Y417614D02*
Y416800D01*
X198013D01*
X198005Y416841D01*
X197699Y417299D01*
X197241Y417605D01*
X197200Y417614D01*
D02*
G37*
G36*
X232213Y420200D02*
X231400D01*
Y419335D01*
X231415Y419323D01*
X231459Y419289D01*
X231589Y419188D01*
X231594Y419181D01*
X231629Y419132D01*
X231656Y419095D01*
X232317Y418176D01*
X232289Y418139D01*
X232284Y418133D01*
X232061Y417843D01*
X231653Y416858D01*
X231514Y415800D01*
X231653Y414742D01*
X232061Y413757D01*
X232711Y412911D01*
X233557Y412261D01*
X234542Y411853D01*
X235600Y411714D01*
X236658Y411853D01*
X237643Y412261D01*
X238489Y412911D01*
X239139Y413757D01*
X239547Y414742D01*
X239686Y415800D01*
X239547Y416858D01*
X239139Y417843D01*
X239101Y417893D01*
X239132Y417966D01*
X240052Y419116D01*
X240200Y419087D01*
X240741Y419195D01*
X241199Y419501D01*
X241505Y419959D01*
X241513Y420000D01*
X238434D01*
X237742Y419421D01*
X237602Y419356D01*
X236658Y419747D01*
X235600Y419886D01*
X234542Y419747D01*
X233557Y419339D01*
X233367Y419193D01*
X233295Y419253D01*
X233138Y419385D01*
X232481Y419933D01*
X232446Y419962D01*
X232285Y420097D01*
X232267Y420122D01*
X232266Y420124D01*
X232251Y420145D01*
X232246Y420152D01*
X232245Y420153D01*
X232241Y420159D01*
X232227Y420178D01*
X232226Y420180D01*
X232213Y420198D01*
X232213Y420199D01*
X232213Y420200D01*
D02*
G37*
G36*
X339900Y420100D02*
X339062D01*
X339034Y420061D01*
X339022Y420045D01*
X339000Y420016D01*
X338931Y419974D01*
X338311Y419605D01*
X337740Y419264D01*
X337643Y419339D01*
X336658Y419747D01*
X335600Y419886D01*
X334542Y419747D01*
X333557Y419339D01*
X333366Y419192D01*
X332962Y419438D01*
X332962Y419438D01*
X332687Y419605D01*
X332624Y419644D01*
X332608Y419654D01*
X332574Y419674D01*
X332552Y419687D01*
X332493Y419753D01*
X332409Y419846D01*
X332407Y419848D01*
X332407Y419849D01*
X332343Y419920D01*
X332271Y420000D01*
X331300D01*
Y419063D01*
X331307Y419057D01*
X331394Y418982D01*
X331466Y418921D01*
X331472Y418916D01*
X331500Y418892D01*
X331508Y418885D01*
X331541Y418857D01*
X331544Y418854D01*
X331572Y418830D01*
X331609Y418771D01*
X331662Y418688D01*
X331662Y418687D01*
X331689Y418645D01*
X331883Y418339D01*
X331883Y418339D01*
X332135Y417940D01*
X332061Y417843D01*
X331653Y416858D01*
X331514Y415800D01*
X331653Y414742D01*
X332061Y413757D01*
X332711Y412911D01*
X333557Y412261D01*
X334542Y411853D01*
X335600Y411714D01*
X336658Y411853D01*
X337643Y412261D01*
X338489Y412911D01*
X339139Y413757D01*
X339547Y414742D01*
X339686Y415800D01*
X339547Y416858D01*
X339139Y417843D01*
X339064Y417940D01*
X339405Y418510D01*
X339774Y419131D01*
X339816Y419200D01*
X339845Y419222D01*
X339861Y419234D01*
X339900Y419262D01*
Y420100D01*
D02*
G37*
G36*
X309900D02*
X309062D01*
X309033Y420061D01*
X309022Y420045D01*
X309000Y420016D01*
X308930Y419974D01*
X308311Y419605D01*
X307740Y419264D01*
X307643Y419339D01*
X306658Y419747D01*
X305600Y419886D01*
X304542Y419747D01*
X303557Y419339D01*
X302711Y418689D01*
X302061Y417843D01*
X301653Y416858D01*
X301514Y415800D01*
X301653Y414742D01*
X302061Y413757D01*
X302711Y412911D01*
X303557Y412261D01*
X304542Y411853D01*
X305600Y411714D01*
X306658Y411853D01*
X307643Y412261D01*
X308489Y412911D01*
X309139Y413757D01*
X309547Y414742D01*
X309686Y415800D01*
X309547Y416858D01*
X309139Y417843D01*
X309064Y417940D01*
X309405Y418510D01*
X309774Y419131D01*
X309816Y419200D01*
X309845Y419222D01*
X309861Y419234D01*
X309900Y419262D01*
Y420100D01*
D02*
G37*
G36*
X330300Y420000D02*
X329486D01*
X329495Y419959D01*
X329801Y419501D01*
X330259Y419195D01*
X330300Y419186D01*
Y420000D01*
D02*
G37*
G36*
X282114Y420200D02*
X281300D01*
Y419386D01*
X281341Y419395D01*
X281403Y419395D01*
X281408Y419395D01*
X281431Y419370D01*
X281490Y419307D01*
X281612Y419178D01*
X282344Y418396D01*
X282394Y418343D01*
X282419Y418316D01*
X282422Y418313D01*
X282132Y417935D01*
Y417935D01*
X282061Y417843D01*
X281653Y416858D01*
X281514Y415800D01*
X281653Y414742D01*
X282061Y413757D01*
X282711Y412911D01*
X283557Y412261D01*
X284542Y411853D01*
X285600Y411714D01*
X286658Y411853D01*
X287643Y412261D01*
X288489Y412911D01*
X289139Y413757D01*
X289547Y414742D01*
X289686Y415800D01*
X289547Y416858D01*
X289139Y417843D01*
X288489Y418689D01*
X287643Y419339D01*
X286658Y419747D01*
X285600Y419886D01*
X284542Y419747D01*
X283557Y419339D01*
X283526Y419315D01*
D01*
X283155Y419030D01*
X283151Y419034D01*
X283119Y419064D01*
X283068Y419112D01*
X282288Y419842D01*
X282159Y419963D01*
X282114Y420005D01*
X282098Y420020D01*
X282099Y420035D01*
X282105Y420159D01*
X282114Y420200D01*
D02*
G37*
G36*
X346300Y405814D02*
Y405000D01*
X347113D01*
X347105Y405041D01*
X346799Y405499D01*
X346341Y405805D01*
X346300Y405814D01*
D02*
G37*
G36*
X345300D02*
X345259Y405805D01*
X344801Y405499D01*
X344495Y405041D01*
X344486Y405000D01*
X345300D01*
Y405814D01*
D02*
G37*
G36*
X339400D02*
Y405000D01*
X340213D01*
X340205Y405041D01*
X339899Y405499D01*
X339441Y405805D01*
X339400Y405814D01*
D02*
G37*
G36*
X352300D02*
X352259Y405805D01*
X351801Y405499D01*
X351495Y405041D01*
X351486Y405000D01*
X352300D01*
Y405814D01*
D02*
G37*
G36*
X332500Y405913D02*
Y405100D01*
X333313D01*
X333305Y405141D01*
X332999Y405599D01*
X332541Y405905D01*
X332500Y405913D01*
D02*
G37*
G36*
X331500D02*
X331459Y405905D01*
X331001Y405599D01*
X330695Y405141D01*
X330686Y405100D01*
X331500D01*
Y405913D01*
D02*
G37*
G36*
X353300Y405814D02*
Y405000D01*
X354114D01*
X354105Y405041D01*
X353799Y405499D01*
X353341Y405805D01*
X353300Y405814D01*
D02*
G37*
G36*
X338400D02*
X338359Y405805D01*
X337901Y405499D01*
X337595Y405041D01*
X337586Y405000D01*
X338400D01*
Y405814D01*
D02*
G37*
G36*
X186900Y404813D02*
Y404000D01*
X187714D01*
X187705Y404041D01*
X187399Y404499D01*
X186941Y404805D01*
X186900Y404813D01*
D02*
G37*
G36*
X185900D02*
X185859Y404805D01*
X185401Y404499D01*
X185095Y404041D01*
X185087Y404000D01*
X185900D01*
Y404813D01*
D02*
G37*
G36*
X193900Y404713D02*
Y403900D01*
X194713D01*
X194705Y403941D01*
X194399Y404399D01*
X193941Y404705D01*
X193900Y404713D01*
D02*
G37*
G36*
X200800Y404813D02*
X200759Y404805D01*
X200301Y404499D01*
X199995Y404041D01*
X199987Y404000D01*
X200800D01*
Y404813D01*
D02*
G37*
G36*
X363900Y405714D02*
Y404900D01*
X364714D01*
X364705Y404941D01*
X364399Y405399D01*
X363941Y405705D01*
X363900Y405714D01*
D02*
G37*
G36*
X362900D02*
X362859Y405705D01*
X362401Y405399D01*
X362095Y404941D01*
X362087Y404900D01*
X362900D01*
Y405714D01*
D02*
G37*
G36*
X201800Y404813D02*
Y404000D01*
X202613D01*
X202605Y404041D01*
X202299Y404499D01*
X201841Y404805D01*
X201800Y404813D01*
D02*
G37*
G36*
X282800Y406113D02*
X282759Y406105D01*
X282301Y405799D01*
X281995Y405341D01*
X281986Y405300D01*
X282800D01*
Y406113D01*
D02*
G37*
G36*
X197100Y408613D02*
Y407800D01*
X197914D01*
X197905Y407841D01*
X197599Y408299D01*
X197141Y408605D01*
X197100Y408613D01*
D02*
G37*
G36*
X196100D02*
X196059Y408605D01*
X195601Y408299D01*
X195295Y407841D01*
X195287Y407800D01*
X196100D01*
Y408613D01*
D02*
G37*
G36*
X197914Y406800D02*
X197100D01*
Y405986D01*
X197141Y405995D01*
X197599Y406301D01*
X197905Y406759D01*
X197914Y406800D01*
D02*
G37*
G36*
X196200Y411400D02*
X195387D01*
X195395Y411359D01*
X195701Y410901D01*
X196159Y410595D01*
X196200Y410587D01*
Y411400D01*
D02*
G37*
G36*
X275600Y419886D02*
X274542Y419747D01*
X273557Y419339D01*
X272711Y418689D01*
X272061Y417843D01*
X271653Y416858D01*
X271514Y415800D01*
X271653Y414742D01*
X272061Y413757D01*
X272711Y412911D01*
X273557Y412261D01*
X274542Y411853D01*
X275600Y411714D01*
X276658Y411853D01*
X277643Y412261D01*
X278489Y412911D01*
X279139Y413757D01*
X279547Y414742D01*
X279686Y415800D01*
X279547Y416858D01*
X279139Y417843D01*
X278489Y418689D01*
X277643Y419339D01*
X276658Y419747D01*
X275600Y419886D01*
D02*
G37*
G36*
X245600D02*
X244542Y419747D01*
X243557Y419339D01*
X242711Y418689D01*
X242061Y417843D01*
X241653Y416858D01*
X241514Y415800D01*
X241653Y414742D01*
X242061Y413757D01*
X242711Y412911D01*
X243557Y412261D01*
X244542Y411853D01*
X245600Y411714D01*
X246658Y411853D01*
X247643Y412261D01*
X248489Y412911D01*
X249139Y413757D01*
X249547Y414742D01*
X249686Y415800D01*
X249547Y416858D01*
X249139Y417843D01*
X248489Y418689D01*
X247643Y419339D01*
X246658Y419747D01*
X245600Y419886D01*
D02*
G37*
G36*
X198013Y411400D02*
X197200D01*
Y410587D01*
X197241Y410595D01*
X197699Y410901D01*
X198005Y411359D01*
X198013Y411400D01*
D02*
G37*
G36*
X196100Y406800D02*
X195287D01*
X195295Y406759D01*
X195601Y406301D01*
X196059Y405995D01*
X196100Y405986D01*
Y406800D01*
D02*
G37*
G36*
X290400Y406113D02*
Y405300D01*
X291213D01*
X291205Y405341D01*
X290899Y405799D01*
X290441Y406105D01*
X290400Y406113D01*
D02*
G37*
G36*
X289400D02*
X289359Y406105D01*
X288901Y405799D01*
X288595Y405341D01*
X288586Y405300D01*
X289400D01*
Y406113D01*
D02*
G37*
G36*
X283800D02*
Y405300D01*
X284613D01*
X284605Y405341D01*
X284299Y405799D01*
X283841Y406105D01*
X283800Y406113D01*
D02*
G37*
G36*
X296600D02*
X296559Y406105D01*
X296101Y405799D01*
X295795Y405341D01*
X295786Y405300D01*
X296600D01*
Y406113D01*
D02*
G37*
G36*
X304800D02*
Y405300D01*
X305613D01*
X305605Y405341D01*
X305299Y405799D01*
X304841Y406105D01*
X304800Y406113D01*
D02*
G37*
G36*
X303800D02*
X303759Y406105D01*
X303301Y405799D01*
X302995Y405341D01*
X302987Y405300D01*
X303800D01*
Y406113D01*
D02*
G37*
G36*
X297600D02*
Y405300D01*
X298413D01*
X298405Y405341D01*
X298099Y405799D01*
X297641Y406105D01*
X297600Y406113D01*
D02*
G37*
G36*
X335600Y429886D02*
X334542Y429747D01*
X333557Y429339D01*
X332711Y428689D01*
X332061Y427843D01*
X331653Y426858D01*
X331514Y425800D01*
X331653Y424742D01*
X332061Y423757D01*
X332711Y422911D01*
X333557Y422261D01*
X334542Y421853D01*
X335600Y421714D01*
X336658Y421853D01*
X337643Y422261D01*
X338489Y422911D01*
X339139Y423757D01*
X339547Y424742D01*
X339686Y425800D01*
X339547Y426858D01*
X339139Y427843D01*
X338489Y428689D01*
X337643Y429339D01*
X336658Y429747D01*
X335600Y429886D01*
D02*
G37*
G36*
X325600D02*
X324542Y429747D01*
X323557Y429339D01*
X322711Y428689D01*
X322061Y427843D01*
X321653Y426858D01*
X321514Y425800D01*
X321653Y424742D01*
X322061Y423757D01*
X322711Y422911D01*
X323557Y422261D01*
X324542Y421853D01*
X325600Y421714D01*
X326658Y421853D01*
X327643Y422261D01*
X328489Y422911D01*
X329139Y423757D01*
X329547Y424742D01*
X329686Y425800D01*
X329547Y426858D01*
X329139Y427843D01*
X328489Y428689D01*
X327643Y429339D01*
X326658Y429747D01*
X325600Y429886D01*
D02*
G37*
G36*
X305600D02*
X304542Y429747D01*
X303557Y429339D01*
X302711Y428689D01*
X302061Y427843D01*
X301653Y426858D01*
X301514Y425800D01*
X301653Y424742D01*
X302061Y423757D01*
X302711Y422911D01*
X303557Y422261D01*
X304542Y421853D01*
X305600Y421714D01*
X306658Y421853D01*
X307643Y422261D01*
X308489Y422911D01*
X309139Y423757D01*
X309547Y424742D01*
X309686Y425800D01*
X309547Y426858D01*
X309139Y427843D01*
X308489Y428689D01*
X307643Y429339D01*
X306658Y429747D01*
X305600Y429886D01*
D02*
G37*
G36*
X345600D02*
X344542Y429747D01*
X343557Y429339D01*
X342711Y428689D01*
X342061Y427843D01*
X341653Y426858D01*
X341514Y425800D01*
X341653Y424742D01*
X342061Y423757D01*
X342711Y422911D01*
X343557Y422261D01*
X344542Y421853D01*
X345600Y421714D01*
X346658Y421853D01*
X347643Y422261D01*
X348489Y422911D01*
X349139Y423757D01*
X349547Y424742D01*
X349686Y425800D01*
X349547Y426858D01*
X349139Y427843D01*
X348489Y428689D01*
X347643Y429339D01*
X346658Y429747D01*
X345600Y429886D01*
D02*
G37*
G36*
X219116Y425300D02*
X216100D01*
Y422284D01*
X216527Y422340D01*
X217391Y422698D01*
X218133Y423267D01*
X218702Y424009D01*
X219060Y424873D01*
X219116Y425300D01*
D02*
G37*
G36*
X215100D02*
X212084D01*
X212140Y424873D01*
X212498Y424009D01*
X213067Y423267D01*
X213809Y422698D01*
X214673Y422340D01*
X215100Y422284D01*
Y425300D01*
D02*
G37*
G36*
X205100D02*
X202049D01*
Y422249D01*
X205100D01*
Y425300D01*
D02*
G37*
G36*
X285600Y429886D02*
X284542Y429747D01*
X283557Y429339D01*
X282711Y428689D01*
X282061Y427843D01*
X281653Y426858D01*
X281514Y425800D01*
X281653Y424742D01*
X282061Y423757D01*
X282711Y422911D01*
X283557Y422261D01*
X284542Y421853D01*
X285600Y421714D01*
X286658Y421853D01*
X287643Y422261D01*
X288489Y422911D01*
X289139Y423757D01*
X289547Y424742D01*
X289686Y425800D01*
X289547Y426858D01*
X289139Y427843D01*
X288489Y428689D01*
X287643Y429339D01*
X286658Y429747D01*
X285600Y429886D01*
D02*
G37*
G36*
X315600D02*
X314542Y429747D01*
X313557Y429339D01*
X312711Y428689D01*
X312061Y427843D01*
X311653Y426858D01*
X311514Y425800D01*
X311653Y424742D01*
X312061Y423757D01*
X312711Y422911D01*
X313557Y422261D01*
X314542Y421853D01*
X315600Y421714D01*
X316658Y421853D01*
X317542Y422220D01*
X317633Y422257D01*
X317643Y422261D01*
X317798Y422318D01*
X318988Y421571D01*
X319134Y421400D01*
X320000D01*
Y422266D01*
X319829Y422412D01*
X319082Y423601D01*
X319139Y423757D01*
X319143Y423767D01*
X319180Y423858D01*
X319547Y424742D01*
X319686Y425800D01*
X319547Y426858D01*
X319139Y427843D01*
X318489Y428689D01*
X317643Y429339D01*
X316658Y429747D01*
X315600Y429886D01*
D02*
G37*
G36*
X300700Y422214D02*
Y421400D01*
X301514D01*
X301505Y421441D01*
X301199Y421899D01*
X300741Y422205D01*
X300700Y422214D01*
D02*
G37*
G36*
X295600Y429886D02*
X294542Y429747D01*
X293557Y429339D01*
X292711Y428689D01*
X292061Y427843D01*
X291653Y426858D01*
X291514Y425800D01*
X291653Y424742D01*
X292020Y423858D01*
X292057Y423767D01*
X292061Y423757D01*
X292118Y423601D01*
X291371Y422412D01*
X291200Y422266D01*
Y421400D01*
X292066D01*
X292212Y421571D01*
X293402Y422318D01*
X293557Y422261D01*
X293567Y422257D01*
X293658Y422220D01*
X294542Y421853D01*
X295600Y421714D01*
X296658Y421853D01*
X297643Y422261D01*
X297645Y422263D01*
X298040Y422003D01*
X298040Y422003D01*
X298315Y421822D01*
X298338Y421807D01*
X298471Y421720D01*
X298568Y421656D01*
X298600Y421635D01*
X298607Y421630D01*
X298609Y421627D01*
X298615Y421620D01*
X298621Y421613D01*
X298633Y421599D01*
X298751Y421454D01*
X298780Y421419D01*
X298796Y421400D01*
X299700D01*
Y422408D01*
X299660Y422446D01*
X299614Y422489D01*
X299612Y422491D01*
X299478Y422617D01*
X299379Y422709D01*
X299347Y422740D01*
X299345Y422743D01*
X299344Y422745D01*
X299340Y422752D01*
X299335Y422760D01*
X299265Y422880D01*
X299158Y423063D01*
X299158Y423063D01*
X298920Y423471D01*
X299139Y423757D01*
X299547Y424742D01*
X299686Y425800D01*
X299547Y426858D01*
X299139Y427843D01*
X298489Y428689D01*
X297643Y429339D01*
X296658Y429747D01*
X295600Y429886D01*
D02*
G37*
G36*
X321000Y422214D02*
Y421400D01*
X321814D01*
X321805Y421441D01*
X321499Y421899D01*
X321041Y422205D01*
X321000Y422214D01*
D02*
G37*
G36*
X275600Y429886D02*
X274542Y429747D01*
X273557Y429339D01*
X272711Y428689D01*
X272061Y427843D01*
X271653Y426858D01*
X271514Y425800D01*
X271653Y424742D01*
X272061Y423757D01*
X272711Y422911D01*
X273557Y422261D01*
X274542Y421853D01*
X275600Y421714D01*
X276658Y421853D01*
X277643Y422261D01*
X278489Y422911D01*
X279139Y423757D01*
X279547Y424742D01*
X279686Y425800D01*
X279547Y426858D01*
X279139Y427843D01*
X278489Y428689D01*
X277643Y429339D01*
X276658Y429747D01*
X275600Y429886D01*
D02*
G37*
G36*
X245600D02*
X244542Y429747D01*
X243557Y429339D01*
X242711Y428689D01*
X242061Y427843D01*
X241653Y426858D01*
X241514Y425800D01*
X241653Y424742D01*
X242061Y423757D01*
X242711Y422911D01*
X243557Y422261D01*
X244542Y421853D01*
X245600Y421714D01*
X246658Y421853D01*
X247643Y422261D01*
X248489Y422911D01*
X249139Y423757D01*
X249547Y424742D01*
X249686Y425800D01*
X249547Y426858D01*
X249139Y427843D01*
X248489Y428689D01*
X247643Y429339D01*
X246658Y429747D01*
X245600Y429886D01*
D02*
G37*
G36*
X235600D02*
X234542Y429747D01*
X233557Y429339D01*
X232711Y428689D01*
X232061Y427843D01*
X231653Y426858D01*
X231514Y425800D01*
X231653Y424742D01*
X231976Y423964D01*
X232061Y423757D01*
X232095Y423633D01*
X232114Y423545D01*
X230963Y422119D01*
X230963Y422119D01*
X230900Y422113D01*
D01*
X230557Y422045D01*
X230359Y422005D01*
X229901Y421699D01*
X229595Y421241D01*
X229587Y421200D01*
X232529D01*
X232909Y421817D01*
X233839Y422145D01*
X233909Y422116D01*
X234542Y421853D01*
X235600Y421714D01*
X236658Y421853D01*
X237643Y422261D01*
X238489Y422911D01*
X239139Y423757D01*
X239547Y424742D01*
X239686Y425800D01*
X239547Y426858D01*
X239139Y427843D01*
X238489Y428689D01*
X237643Y429339D01*
X236658Y429747D01*
X235600Y429886D01*
D02*
G37*
G36*
X225100Y425300D02*
X222084D01*
X222140Y424873D01*
X222498Y424009D01*
X223067Y423267D01*
X223809Y422698D01*
X224673Y422340D01*
X225100Y422284D01*
Y425300D01*
D02*
G37*
G36*
X216100Y429316D02*
Y426300D01*
X219116D01*
X219060Y426727D01*
X218702Y427591D01*
X218133Y428333D01*
X217391Y428902D01*
X216527Y429260D01*
X216100Y429316D01*
D02*
G37*
G36*
X215100D02*
X214673Y429260D01*
X213809Y428902D01*
X213067Y428333D01*
X212498Y427591D01*
X212140Y426727D01*
X212084Y426300D01*
X215100D01*
Y429316D01*
D02*
G37*
G36*
X209151Y429351D02*
X206100D01*
Y426300D01*
X209151D01*
Y429351D01*
D02*
G37*
G36*
X225100Y429316D02*
X224673Y429260D01*
X223809Y428902D01*
X223067Y428333D01*
X222498Y427591D01*
X222140Y426727D01*
X222084Y426300D01*
X225100D01*
Y429316D01*
D02*
G37*
G36*
X256100D02*
Y426300D01*
X259116D01*
X259060Y426727D01*
X258702Y427591D01*
X258133Y428333D01*
X257391Y428902D01*
X256527Y429260D01*
X256100Y429316D01*
D02*
G37*
G36*
X255100D02*
X254673Y429260D01*
X253809Y428902D01*
X253067Y428333D01*
X252498Y427591D01*
X252140Y426727D01*
X252084Y426300D01*
X255100D01*
Y429316D01*
D02*
G37*
G36*
X226100D02*
Y426300D01*
X229116D01*
X229060Y426727D01*
X228702Y427591D01*
X228133Y428333D01*
X227391Y428902D01*
X226527Y429260D01*
X226100Y429316D01*
D02*
G37*
G36*
X205100Y429351D02*
X202049D01*
Y426300D01*
X205100D01*
Y429351D01*
D02*
G37*
G36*
X259116Y425300D02*
X256100D01*
Y422284D01*
X256527Y422340D01*
X257391Y422698D01*
X258133Y423267D01*
X258702Y424009D01*
X259060Y424873D01*
X259116Y425300D01*
D02*
G37*
G36*
X255100D02*
X252084D01*
X252140Y424873D01*
X252498Y424009D01*
X253067Y423267D01*
X253809Y422698D01*
X254673Y422340D01*
X255100Y422284D01*
Y425300D01*
D02*
G37*
G36*
X229116D02*
X226100D01*
Y422284D01*
X226527Y422340D01*
X227391Y422698D01*
X228133Y423267D01*
X228702Y424009D01*
X229060Y424873D01*
X229116Y425300D01*
D02*
G37*
G36*
X196100D02*
X195287D01*
X195295Y425259D01*
X195601Y424801D01*
X196059Y424495D01*
X196100Y424486D01*
Y425300D01*
D02*
G37*
G36*
X197100Y427113D02*
Y426300D01*
X197914D01*
X197905Y426341D01*
X197599Y426799D01*
X197141Y427105D01*
X197100Y427113D01*
D02*
G37*
G36*
X196100D02*
X196059Y427105D01*
X195601Y426799D01*
X195295Y426341D01*
X195287Y426300D01*
X196100D01*
Y427113D01*
D02*
G37*
G36*
X197914Y425300D02*
X197100D01*
Y424486D01*
X197141Y424495D01*
X197599Y424801D01*
X197905Y425259D01*
X197914Y425300D01*
D02*
G37*
G36*
X290200Y422214D02*
X290159Y422205D01*
X289701Y421899D01*
X289395Y421441D01*
X289387Y421400D01*
X290200D01*
Y422214D01*
D02*
G37*
G36*
X362500Y420413D02*
X362459Y420405D01*
X362001Y420099D01*
X361695Y419641D01*
X361686Y419600D01*
X362500D01*
Y420413D01*
D02*
G37*
G36*
X321814Y420400D02*
X321000D01*
Y419587D01*
X321041Y419595D01*
X321499Y419901D01*
X321805Y420359D01*
X321814Y420400D01*
D02*
G37*
G36*
X320000D02*
X319186D01*
X319195Y420359D01*
X319501Y419901D01*
X319959Y419595D01*
X320000Y419587D01*
Y420400D01*
D02*
G37*
G36*
X363500Y420413D02*
Y419600D01*
X364314D01*
X364305Y419641D01*
X363999Y420099D01*
X363541Y420405D01*
X363500Y420413D01*
D02*
G37*
G36*
X330300Y421813D02*
X330259Y421805D01*
X329801Y421499D01*
X329495Y421041D01*
X329486Y421000D01*
X330300D01*
Y421813D01*
D02*
G37*
G36*
X240700D02*
Y421000D01*
X241513D01*
X241505Y421041D01*
X241199Y421499D01*
X240741Y421805D01*
X240700Y421813D01*
D02*
G37*
G36*
X239700D02*
X239659Y421805D01*
X239201Y421499D01*
X238895Y421041D01*
X238886Y421000D01*
X239700D01*
Y421813D01*
D02*
G37*
G36*
X301514Y420400D02*
X300700D01*
Y419587D01*
X300741Y419595D01*
X301199Y419901D01*
X301505Y420359D01*
X301514Y420400D01*
D02*
G37*
G36*
X271514Y420200D02*
X270700D01*
Y419386D01*
X270741Y419395D01*
X271199Y419701D01*
X271505Y420159D01*
X271514Y420200D01*
D02*
G37*
G36*
X230400D02*
X229587D01*
X229595Y420159D01*
X229901Y419701D01*
X230359Y419395D01*
X230400Y419386D01*
Y420200D01*
D02*
G37*
G36*
X221713D02*
X220900D01*
Y419386D01*
X220941Y419395D01*
X221399Y419701D01*
X221705Y420159D01*
X221713Y420200D01*
D02*
G37*
G36*
X280300D02*
X279486D01*
X279495Y420159D01*
X279801Y419701D01*
X280259Y419395D01*
X280300Y419386D01*
Y420200D01*
D02*
G37*
G36*
X292014Y420400D02*
X291200D01*
Y419587D01*
X291241Y419595D01*
X291699Y419901D01*
X292005Y420359D01*
X292014Y420400D01*
D02*
G37*
G36*
X290200D02*
X289387D01*
X289395Y420359D01*
X289701Y419901D01*
X290159Y419595D01*
X290200Y419587D01*
Y420400D01*
D02*
G37*
G36*
X211714Y420300D02*
X208722D01*
X208163Y419678D01*
X207398Y419440D01*
X207305Y419479D01*
X206658Y419747D01*
X205600Y419886D01*
X204542Y419747D01*
X203557Y419339D01*
X202711Y418689D01*
X202061Y417843D01*
X201653Y416858D01*
X201514Y415800D01*
X201653Y414742D01*
X202061Y413757D01*
X202711Y412911D01*
X203557Y412261D01*
X203561Y412260D01*
Y407200D01*
X203716Y406420D01*
X204158Y405758D01*
X206191Y403725D01*
X205756Y402685D01*
X205502Y402293D01*
X205059Y402205D01*
X204601Y401899D01*
X204295Y401441D01*
X204287Y401400D01*
X205600D01*
Y400900D01*
X206100D01*
Y399587D01*
X206141Y399595D01*
X206599Y399901D01*
X206905Y400359D01*
X207013Y400900D01*
X207009Y400921D01*
X208026Y401757D01*
X208260Y401908D01*
X209000Y401761D01*
X209000Y401761D01*
X219855D01*
X231061Y390555D01*
Y380200D01*
X231216Y379420D01*
X231658Y378758D01*
X238958Y371458D01*
X239620Y371016D01*
X240400Y370861D01*
X245358D01*
X245445Y370425D01*
X245998Y369598D01*
X246825Y369045D01*
X247800Y368851D01*
X252800D01*
X253776Y369045D01*
X254602Y369598D01*
X254835Y369945D01*
X256313Y370234D01*
X256636Y370180D01*
X258561Y368255D01*
Y331245D01*
X256389Y329073D01*
X256352Y329059D01*
X254540Y329346D01*
X254502Y329402D01*
X253676Y329955D01*
X252700Y330149D01*
X247700D01*
X246725Y329955D01*
X245898Y329402D01*
X245345Y328575D01*
X245151Y327600D01*
Y324600D01*
X245345Y323624D01*
X245898Y322798D01*
X246725Y322245D01*
X247700Y322051D01*
X252700D01*
X253676Y322245D01*
X254502Y322798D01*
X255055Y323624D01*
X255142Y324061D01*
X256300D01*
X257080Y324216D01*
X257742Y324658D01*
X262042Y328958D01*
X262484Y329620D01*
X262639Y330400D01*
Y369100D01*
X262484Y369880D01*
X262042Y370542D01*
X258242Y374342D01*
X257580Y374784D01*
X256800Y374939D01*
X255242D01*
X255155Y375376D01*
X254602Y376202D01*
X253776Y376755D01*
X252800Y376949D01*
X247800D01*
X246825Y376755D01*
X245998Y376202D01*
X245445Y375376D01*
X245358Y374939D01*
X241245D01*
X235139Y381045D01*
Y391400D01*
X234984Y392180D01*
X234542Y392842D01*
X222823Y404561D01*
X223444Y406061D01*
X267155D01*
X273061Y400155D01*
Y390500D01*
X273216Y389720D01*
X273658Y389058D01*
X289358Y373358D01*
Y372642D01*
X288916Y371980D01*
X288761Y371200D01*
Y330900D01*
X288916Y330120D01*
X289358Y329458D01*
X293958Y324858D01*
X294620Y324416D01*
X295400Y324261D01*
X295958D01*
X296045Y323825D01*
X296598Y322998D01*
X297425Y322445D01*
X298400Y322251D01*
X303400D01*
X304376Y322445D01*
X305202Y322998D01*
X305755Y323825D01*
X305949Y324800D01*
Y327800D01*
X305755Y328776D01*
X305202Y329602D01*
X304376Y330155D01*
X303400Y330349D01*
X298400D01*
X297425Y330155D01*
X296598Y329602D01*
X294869Y329715D01*
X292839Y331745D01*
Y370355D01*
X293445Y370961D01*
X296458D01*
X296545Y370525D01*
X297098Y369698D01*
X297924Y369145D01*
X298900Y368951D01*
X303900D01*
X304875Y369145D01*
X305702Y369698D01*
X306255Y370525D01*
X306449Y371500D01*
Y374500D01*
X306255Y375476D01*
X305702Y376302D01*
X304875Y376855D01*
X303900Y377049D01*
X298900D01*
X297924Y376855D01*
X297098Y376302D01*
X296545Y375476D01*
X296458Y375039D01*
X293445D01*
X277139Y391345D01*
Y401000D01*
X277139Y401000D01*
X276984Y401780D01*
X276542Y402442D01*
X269442Y409542D01*
X268780Y409984D01*
X268000Y410139D01*
X218245D01*
X217639Y410745D01*
Y412260D01*
X217643Y412261D01*
X218489Y412911D01*
X219139Y413757D01*
X219547Y414742D01*
X219686Y415800D01*
X219547Y416858D01*
X219139Y417843D01*
X219068Y417935D01*
X219068D01*
X218778Y418313D01*
X218781Y418316D01*
X218806Y418343D01*
X218856Y418396D01*
X219588Y419178D01*
X219709Y419307D01*
X219769Y419370D01*
X219792Y419395D01*
X219797Y419395D01*
X219859Y419395D01*
X219900Y419386D01*
Y420200D01*
X219087D01*
X219095Y420159D01*
X219101Y420037D01*
X219102Y420020D01*
X219086Y420005D01*
X219041Y419963D01*
X218912Y419842D01*
X218131Y419112D01*
X218081Y419064D01*
X218049Y419034D01*
X218045Y419030D01*
X217674Y419315D01*
X217674D01*
X217643Y419339D01*
X216658Y419747D01*
X215600Y419886D01*
X214542Y419747D01*
X213557Y419339D01*
X212711Y418689D01*
X212061Y417843D01*
X211653Y416858D01*
X211514Y415800D01*
X211653Y414742D01*
X212061Y413757D01*
X212711Y412911D01*
X213557Y412261D01*
X213561Y412260D01*
Y409900D01*
X213716Y409120D01*
X214158Y408458D01*
X215277Y407339D01*
X214656Y405839D01*
X209845D01*
X207639Y408045D01*
Y412260D01*
X207643Y412261D01*
X208489Y412911D01*
X209139Y413757D01*
X209547Y414742D01*
X209686Y415800D01*
X209547Y416858D01*
X209257Y417557D01*
X209139Y417843D01*
X209126Y417920D01*
X209110Y418018D01*
X210353Y419384D01*
X210400Y419387D01*
D01*
X210746Y419456D01*
X210941Y419495D01*
X211399Y419801D01*
X211705Y420259D01*
X211714Y420300D01*
D02*
G37*
G36*
X331300Y421813D02*
Y421000D01*
X332114D01*
X332105Y421041D01*
X331799Y421499D01*
X331341Y421805D01*
X331300Y421813D01*
D02*
G37*
G36*
X265600Y429886D02*
X264542Y429747D01*
X263557Y429339D01*
X262711Y428689D01*
X262061Y427843D01*
X261653Y426858D01*
X261514Y425800D01*
X261653Y424742D01*
X262061Y423757D01*
X262711Y422911D01*
X263557Y422261D01*
X264542Y421853D01*
X265600Y421714D01*
X266658Y421853D01*
X267524Y422212D01*
D01*
X267637Y422259D01*
X267643Y422261D01*
X267788Y422311D01*
X268906Y421338D01*
X268895Y421241D01*
X268887Y421205D01*
X268886Y421200D01*
X269700D01*
Y422014D01*
X269659Y422005D01*
X269628Y422042D01*
X269555Y422127D01*
X269438Y422262D01*
X268799Y423005D01*
X268710Y423109D01*
X268681Y423143D01*
X268680Y423143D01*
X268674Y423151D01*
X268946Y423506D01*
X268965Y423531D01*
X269139Y423757D01*
X269547Y424742D01*
X269686Y425800D01*
X269547Y426858D01*
X269139Y427843D01*
X268489Y428689D01*
X267643Y429339D01*
X266658Y429747D01*
X265600Y429886D01*
D02*
G37*
G36*
X220900Y422014D02*
Y421200D01*
X221713D01*
X221705Y421241D01*
X221399Y421699D01*
X220941Y422005D01*
X220900Y422014D01*
D02*
G37*
G36*
X219900D02*
X219859Y422005D01*
X219401Y421699D01*
X219095Y421241D01*
X219087Y421200D01*
X219900D01*
Y422014D01*
D02*
G37*
G36*
X270700D02*
Y421200D01*
X271514D01*
X271505Y421241D01*
X271199Y421699D01*
X270741Y422005D01*
X270700Y422014D01*
D02*
G37*
G36*
X209151Y425300D02*
X206100D01*
Y422249D01*
X207897D01*
X207991Y422178D01*
X208635Y421300D01*
X211714D01*
X211705Y421341D01*
X211705Y421341D01*
X211399Y421799D01*
X211399Y421799D01*
X210941Y422105D01*
X210732Y422147D01*
X210618Y422169D01*
X209471Y423021D01*
X209236Y423225D01*
X209151Y423378D01*
Y425300D01*
D02*
G37*
G36*
X281300Y422014D02*
Y421200D01*
X282114D01*
X282105Y421241D01*
X281799Y421699D01*
X281341Y422005D01*
X281300Y422014D01*
D02*
G37*
G36*
X280300D02*
X280259Y422005D01*
X279801Y421699D01*
X279495Y421241D01*
X279486Y421200D01*
X280300D01*
Y422014D01*
D02*
G37*
G36*
X197000D02*
Y421200D01*
X197813D01*
X197805Y421241D01*
X197499Y421699D01*
X197041Y422005D01*
X197000Y422014D01*
D02*
G37*
G36*
X339900Y421913D02*
X339859Y421905D01*
X339401Y421599D01*
X339095Y421141D01*
X339087Y421100D01*
X339900D01*
Y421913D01*
D02*
G37*
G36*
X310900D02*
Y421100D01*
X311714D01*
X311705Y421141D01*
X311399Y421599D01*
X310941Y421905D01*
X310900Y421913D01*
D02*
G37*
G36*
X309900D02*
X309859Y421905D01*
X309401Y421599D01*
X309095Y421141D01*
X309086Y421100D01*
X309900D01*
Y421913D01*
D02*
G37*
G36*
X340900D02*
Y421100D01*
X341714D01*
X341705Y421141D01*
X341399Y421599D01*
X340941Y421905D01*
X340900Y421913D01*
D02*
G37*
G36*
X196000Y422014D02*
X195959Y422005D01*
X195501Y421699D01*
X195195Y421241D01*
X195186Y421200D01*
X196000D01*
Y422014D01*
D02*
G37*
G36*
X190000D02*
Y421200D01*
X190814D01*
X190805Y421241D01*
X190499Y421699D01*
X190041Y422005D01*
X190000Y422014D01*
D02*
G37*
G36*
X189000D02*
X188959Y422005D01*
X188501Y421699D01*
X188195Y421241D01*
X188187Y421200D01*
X189000D01*
Y422014D01*
D02*
G37*
G36*
X236913Y363000D02*
X236100D01*
Y362187D01*
X236141Y362195D01*
X236599Y362501D01*
X236905Y362959D01*
X236913Y363000D01*
D02*
G37*
G36*
X235100D02*
X234286D01*
X234295Y362959D01*
X234601Y362501D01*
X235059Y362195D01*
X235100Y362187D01*
Y363000D01*
D02*
G37*
G36*
X363992Y363308D02*
X357116D01*
X357209Y362359D01*
X357632Y360966D01*
X358318Y359682D01*
X359242Y358557D01*
X360367Y357634D01*
X361650Y356948D01*
X363043Y356525D01*
X363992Y356432D01*
Y363308D01*
D02*
G37*
G36*
X235100Y364813D02*
X235059Y364805D01*
X234601Y364499D01*
X234295Y364041D01*
X234286Y364000D01*
X235100D01*
Y364813D01*
D02*
G37*
G36*
X212192Y370884D02*
X211244Y370791D01*
X209851Y370368D01*
X208567Y369682D01*
X207441Y368759D01*
X206518Y367633D01*
X205832Y366350D01*
X205409Y364956D01*
X205316Y364008D01*
X212192D01*
Y370884D01*
D02*
G37*
G36*
X187208D02*
Y364008D01*
X194084D01*
X193991Y364956D01*
X193568Y366350D01*
X192882Y367633D01*
X191958Y368759D01*
X190833Y369682D01*
X189550Y370368D01*
X188156Y370791D01*
X187208Y370884D01*
D02*
G37*
G36*
X236100Y364813D02*
Y364000D01*
X236913D01*
X236905Y364041D01*
X236599Y364499D01*
X236141Y364805D01*
X236100Y364813D01*
D02*
G37*
G36*
X345884Y363308D02*
X339008D01*
Y356432D01*
X339956Y356525D01*
X341350Y356948D01*
X342633Y357634D01*
X343759Y358557D01*
X344682Y359682D01*
X345368Y360966D01*
X345791Y362359D01*
X345884Y363308D01*
D02*
G37*
G36*
X182300Y352013D02*
Y351200D01*
X183114D01*
X183105Y351241D01*
X182799Y351699D01*
X182341Y352005D01*
X182300Y352013D01*
D02*
G37*
G36*
X181300D02*
X181259Y352005D01*
X180801Y351699D01*
X180495Y351241D01*
X180487Y351200D01*
X181300D01*
Y352013D01*
D02*
G37*
G36*
X210700Y351913D02*
Y351100D01*
X211513D01*
X211505Y351141D01*
X211199Y351599D01*
X210741Y351905D01*
X210700Y351913D01*
D02*
G37*
G36*
X194084Y363008D02*
X187208D01*
Y356132D01*
X188156Y356225D01*
X189550Y356648D01*
X190833Y357334D01*
X191958Y358257D01*
X192882Y359383D01*
X193568Y360666D01*
X193991Y362059D01*
X194084Y363008D01*
D02*
G37*
G36*
X338008Y363308D02*
X331132D01*
X331225Y362359D01*
X331648Y360966D01*
X332334Y359682D01*
X333257Y358557D01*
X334383Y357634D01*
X335666Y356948D01*
X337059Y356525D01*
X338008Y356432D01*
Y363308D01*
D02*
G37*
G36*
X220068Y363008D02*
X213192D01*
Y356132D01*
X214141Y356225D01*
X215534Y356648D01*
X216817Y357334D01*
X217943Y358257D01*
X218866Y359383D01*
X219552Y360666D01*
X219975Y362059D01*
X220068Y363008D01*
D02*
G37*
G36*
X212192D02*
X205316D01*
X205409Y362059D01*
X205832Y360666D01*
X206518Y359383D01*
X207441Y358257D01*
X208567Y357334D01*
X209851Y356648D01*
X211244Y356225D01*
X212192Y356132D01*
Y363008D01*
D02*
G37*
G36*
X213192Y370884D02*
Y364008D01*
X220068D01*
X219975Y364956D01*
X219552Y366350D01*
X218866Y367633D01*
X217943Y368759D01*
X216817Y369682D01*
X215534Y370368D01*
X214141Y370791D01*
X213192Y370884D01*
D02*
G37*
G36*
X320800Y380800D02*
X319987D01*
X319995Y380759D01*
X320301Y380301D01*
X320759Y379995D01*
X320800Y379987D01*
Y380800D01*
D02*
G37*
G36*
X304961Y394425D02*
X298039D01*
Y389276D01*
X299361D01*
Y387000D01*
X296400D01*
Y379000D01*
X306400D01*
Y387000D01*
X303439D01*
Y389276D01*
X304961D01*
Y394425D01*
D02*
G37*
G36*
X253361Y394225D02*
X246439D01*
Y389076D01*
X248261D01*
Y386900D01*
X245300D01*
Y378900D01*
X255300D01*
Y386900D01*
X252339D01*
Y389076D01*
X253361D01*
Y394225D01*
D02*
G37*
G36*
X322614Y380800D02*
X321800D01*
Y379987D01*
X321841Y379995D01*
X322299Y380301D01*
X322605Y380759D01*
X322614Y380800D01*
D02*
G37*
G36*
X194084Y388992D02*
X187208D01*
Y382116D01*
X188156Y382209D01*
X189550Y382632D01*
X190833Y383318D01*
X191958Y384242D01*
X192882Y385367D01*
X193568Y386650D01*
X193991Y388043D01*
X194084Y388992D01*
D02*
G37*
G36*
X321800Y382613D02*
Y381800D01*
X322614D01*
X322605Y381841D01*
X322299Y382299D01*
X321841Y382605D01*
X321800Y382613D01*
D02*
G37*
G36*
X320800D02*
X320759Y382605D01*
X320301Y382299D01*
X319995Y381841D01*
X319987Y381800D01*
X320800D01*
Y382613D01*
D02*
G37*
G36*
X321900Y375514D02*
Y374700D01*
X322713D01*
X322705Y374741D01*
X322399Y375199D01*
X321941Y375505D01*
X321900Y375514D01*
D02*
G37*
G36*
X363992Y371184D02*
X363043Y371091D01*
X361650Y370668D01*
X360367Y369982D01*
X359242Y369058D01*
X358318Y367933D01*
X357632Y366650D01*
X357209Y365257D01*
X357116Y364308D01*
X363992D01*
Y371184D01*
D02*
G37*
G36*
X339008D02*
Y364308D01*
X345884D01*
X345791Y365257D01*
X345368Y366650D01*
X344682Y367933D01*
X343759Y369058D01*
X342633Y369982D01*
X341350Y370668D01*
X339956Y371091D01*
X339008Y371184D01*
D02*
G37*
G36*
X338008D02*
X337059Y371091D01*
X335666Y370668D01*
X334383Y369982D01*
X333257Y369058D01*
X332334Y367933D01*
X331648Y366650D01*
X331225Y365257D01*
X331132Y364308D01*
X338008D01*
Y371184D01*
D02*
G37*
G36*
X351500Y381780D02*
X350211Y381610D01*
X349010Y381113D01*
X347979Y380321D01*
X347187Y379290D01*
X347001Y378839D01*
X332000D01*
X331220Y378684D01*
X330558Y378242D01*
X322958Y370642D01*
X322516Y369980D01*
X322361Y369200D01*
Y341266D01*
X321905Y339954D01*
X308095D01*
Y338339D01*
X305842D01*
X305755Y338775D01*
X305202Y339602D01*
X304376Y340155D01*
X303400Y340349D01*
X298400D01*
X297425Y340155D01*
X296598Y339602D01*
X296045Y338775D01*
X295851Y337800D01*
Y334800D01*
X296045Y333824D01*
X296598Y332998D01*
X297425Y332445D01*
X298400Y332251D01*
X303400D01*
X304376Y332445D01*
X305202Y332998D01*
X305755Y333824D01*
X305842Y334261D01*
X308095D01*
Y332246D01*
X321905D01*
X322361Y330934D01*
Y321745D01*
X318955Y318339D01*
X305900D01*
Y320300D01*
X295900D01*
Y312300D01*
X305900D01*
Y314261D01*
X319800D01*
X320580Y314416D01*
X321242Y314858D01*
X325842Y319458D01*
X326284Y320120D01*
X326439Y320900D01*
Y368355D01*
X332845Y374761D01*
X347001D01*
X347187Y374310D01*
X347979Y373279D01*
X349010Y372487D01*
X350211Y371990D01*
X351500Y371820D01*
X352789Y371990D01*
X353990Y372487D01*
X355021Y373279D01*
X355813Y374310D01*
X356310Y375511D01*
X356480Y376800D01*
X356310Y378089D01*
X355813Y379290D01*
X355021Y380321D01*
X353990Y381113D01*
X352789Y381610D01*
X351500Y381780D01*
D02*
G37*
G36*
X320900Y375514D02*
X320859Y375505D01*
X320401Y375199D01*
X320095Y374741D01*
X320087Y374700D01*
X320900D01*
Y375514D01*
D02*
G37*
G36*
X322713Y373700D02*
X321900D01*
Y372886D01*
X321941Y372895D01*
X322399Y373201D01*
X322705Y373659D01*
X322713Y373700D01*
D02*
G37*
G36*
X320900D02*
X320087D01*
X320095Y373659D01*
X320401Y373201D01*
X320859Y372895D01*
X320900Y372886D01*
Y373700D01*
D02*
G37*
G36*
X209700Y351913D02*
X209659Y351905D01*
X209201Y351599D01*
X208895Y351141D01*
X208887Y351100D01*
X209700D01*
Y351913D01*
D02*
G37*
G36*
X353900Y350613D02*
Y349800D01*
X354714D01*
X354705Y349841D01*
X354399Y350299D01*
X353941Y350605D01*
X353900Y350613D01*
D02*
G37*
G36*
X352900D02*
X352859Y350605D01*
X352401Y350299D01*
X352095Y349841D01*
X352086Y349800D01*
X352900D01*
Y350613D01*
D02*
G37*
G36*
X183114Y350200D02*
X182300D01*
Y349387D01*
X182341Y349395D01*
X182799Y349701D01*
X183105Y350159D01*
X183114Y350200D01*
D02*
G37*
G36*
X366100Y350713D02*
X366059Y350705D01*
X365601Y350399D01*
X365295Y349941D01*
X365286Y349900D01*
X366100D01*
Y350713D01*
D02*
G37*
G36*
X340000Y350914D02*
Y350100D01*
X340813D01*
X340805Y350141D01*
X340499Y350599D01*
X340041Y350905D01*
X340000Y350914D01*
D02*
G37*
G36*
X339000D02*
X338959Y350905D01*
X338501Y350599D01*
X338195Y350141D01*
X338187Y350100D01*
X339000D01*
Y350914D01*
D02*
G37*
G36*
X367100Y350713D02*
Y349900D01*
X367914D01*
X367905Y349941D01*
X367599Y350399D01*
X367141Y350705D01*
X367100Y350713D01*
D02*
G37*
G36*
X181300Y350200D02*
X180487D01*
X180495Y350159D01*
X180801Y349701D01*
X181259Y349395D01*
X181300Y349387D01*
Y350200D01*
D02*
G37*
G36*
X197114Y350100D02*
X196300D01*
Y349287D01*
X196341Y349295D01*
X196799Y349601D01*
X197105Y350059D01*
X197114Y350100D01*
D02*
G37*
G36*
X195300D02*
X194486D01*
X194495Y350059D01*
X194801Y349601D01*
X195259Y349295D01*
X195300Y349287D01*
Y350100D01*
D02*
G37*
G36*
X190514D02*
X189700D01*
Y349287D01*
X189741Y349295D01*
X190199Y349601D01*
X190505Y350059D01*
X190514Y350100D01*
D02*
G37*
G36*
X202700D02*
X201887D01*
X201895Y350059D01*
X202201Y349601D01*
X202659Y349295D01*
X202700Y349287D01*
Y350100D01*
D02*
G37*
G36*
X211513D02*
X210700D01*
Y349287D01*
X210741Y349295D01*
X211199Y349601D01*
X211505Y350059D01*
X211513Y350100D01*
D02*
G37*
G36*
X209700D02*
X208887D01*
X208895Y350059D01*
X209201Y349601D01*
X209659Y349295D01*
X209700Y349287D01*
Y350100D01*
D02*
G37*
G36*
X204514D02*
X203700D01*
Y349287D01*
X203741Y349295D01*
X204199Y349601D01*
X204505Y350059D01*
X204514Y350100D01*
D02*
G37*
G36*
X346000Y350914D02*
X345959Y350905D01*
X345501Y350599D01*
X345195Y350141D01*
X345186Y350100D01*
X346000D01*
Y350914D01*
D02*
G37*
G36*
X189700Y351913D02*
Y351100D01*
X190514D01*
X190505Y351141D01*
X190199Y351599D01*
X189741Y351905D01*
X189700Y351913D01*
D02*
G37*
G36*
X188700D02*
X188659Y351905D01*
X188201Y351599D01*
X187895Y351141D01*
X187887Y351100D01*
X188700D01*
Y351913D01*
D02*
G37*
G36*
X252800Y366949D02*
X247800D01*
X246825Y366755D01*
X245998Y366202D01*
X245445Y365375D01*
X245251Y364400D01*
Y361400D01*
X245445Y360424D01*
X245998Y359598D01*
X246825Y359045D01*
X247800Y358851D01*
X248261D01*
Y356224D01*
X247039D01*
Y351075D01*
X253961D01*
Y356224D01*
X252339D01*
Y358851D01*
X252800D01*
X253776Y359045D01*
X254602Y359598D01*
X255155Y360424D01*
X255349Y361400D01*
Y364400D01*
X255155Y365375D01*
X254602Y366202D01*
X253776Y366755D01*
X252800Y366949D01*
D02*
G37*
G36*
X195300Y351913D02*
X195259Y351905D01*
X194801Y351599D01*
X194495Y351141D01*
X194486Y351100D01*
X195300D01*
Y351913D01*
D02*
G37*
G36*
X203700D02*
Y351100D01*
X204514D01*
X204505Y351141D01*
X204199Y351599D01*
X203741Y351905D01*
X203700Y351913D01*
D02*
G37*
G36*
X202700D02*
X202659Y351905D01*
X202201Y351599D01*
X201895Y351141D01*
X201887Y351100D01*
X202700D01*
Y351913D01*
D02*
G37*
G36*
X196300D02*
Y351100D01*
X197114D01*
X197105Y351141D01*
X196799Y351599D01*
X196341Y351905D01*
X196300Y351913D01*
D02*
G37*
G36*
X303900Y367049D02*
X298900D01*
X297924Y366855D01*
X297098Y366302D01*
X296545Y365476D01*
X296351Y364500D01*
Y361500D01*
X296545Y360525D01*
X297098Y359698D01*
X297924Y359145D01*
X298900Y358951D01*
X299361D01*
Y356124D01*
X298339D01*
Y350975D01*
X305261D01*
Y356124D01*
X303439D01*
Y358951D01*
X303900D01*
X304875Y359145D01*
X305702Y359698D01*
X306255Y360525D01*
X306449Y361500D01*
Y364500D01*
X306255Y365476D01*
X305702Y366302D01*
X304875Y366855D01*
X303900Y367049D01*
D02*
G37*
G36*
X360800Y350914D02*
Y350100D01*
X361613D01*
X361605Y350141D01*
X361299Y350599D01*
X360841Y350905D01*
X360800Y350914D01*
D02*
G37*
G36*
X359800D02*
X359759Y350905D01*
X359301Y350599D01*
X358995Y350141D01*
X358986Y350100D01*
X359800D01*
Y350914D01*
D02*
G37*
G36*
X347000D02*
Y350100D01*
X347814D01*
X347805Y350141D01*
X347499Y350599D01*
X347041Y350905D01*
X347000Y350914D01*
D02*
G37*
G36*
X331900Y351214D02*
X331859Y351205D01*
X331401Y350899D01*
X331095Y350441D01*
X331086Y350400D01*
X331900D01*
Y351214D01*
D02*
G37*
G36*
X217700Y351613D02*
Y350800D01*
X218513D01*
X218505Y350841D01*
X218199Y351299D01*
X217741Y351605D01*
X217700Y351613D01*
D02*
G37*
G36*
X216700D02*
X216659Y351605D01*
X216201Y351299D01*
X215895Y350841D01*
X215886Y350800D01*
X216700D01*
Y351613D01*
D02*
G37*
G36*
X332900Y351214D02*
Y350400D01*
X333714D01*
X333705Y350441D01*
X333399Y350899D01*
X332941Y351205D01*
X332900Y351214D01*
D02*
G37*
G36*
X234700Y403313D02*
Y402500D01*
X235513D01*
X235505Y402541D01*
X235199Y402999D01*
X234741Y403305D01*
X234700Y403313D01*
D02*
G37*
G36*
X233700D02*
X233659Y403305D01*
X233201Y402999D01*
X232895Y402541D01*
X232887Y402500D01*
X233700D01*
Y403313D01*
D02*
G37*
G36*
X202613Y403000D02*
X201800D01*
Y402186D01*
X201841Y402195D01*
X202299Y402501D01*
X202605Y402959D01*
X202613Y403000D01*
D02*
G37*
G36*
X362900Y403900D02*
X362087D01*
X362095Y403859D01*
X362401Y403401D01*
X362859Y403095D01*
X362900Y403087D01*
Y403900D01*
D02*
G37*
G36*
X340213Y404000D02*
X339400D01*
Y403187D01*
X339441Y403195D01*
X339899Y403501D01*
X340205Y403959D01*
X340213Y404000D01*
D02*
G37*
G36*
X338400D02*
X337586D01*
X337595Y403959D01*
X337901Y403501D01*
X338359Y403195D01*
X338400Y403187D01*
Y404000D01*
D02*
G37*
G36*
X364714Y403900D02*
X363900D01*
Y403087D01*
X363941Y403095D01*
X364399Y403401D01*
X364705Y403859D01*
X364714Y403900D01*
D02*
G37*
G36*
X200800Y403000D02*
X199987D01*
X199995Y402959D01*
X200301Y402501D01*
X200759Y402195D01*
X200800Y402186D01*
Y403000D01*
D02*
G37*
G36*
X181814Y402800D02*
X181000D01*
Y401987D01*
X181041Y401995D01*
X181499Y402301D01*
X181805Y402759D01*
X181814Y402800D01*
D02*
G37*
G36*
X235513Y401500D02*
X234700D01*
Y400687D01*
X234741Y400695D01*
X235199Y401001D01*
X235505Y401459D01*
X235513Y401500D01*
D02*
G37*
G36*
X233700D02*
X232887D01*
X232895Y401459D01*
X233201Y401001D01*
X233659Y400695D01*
X233700Y400687D01*
Y401500D01*
D02*
G37*
G36*
X192900Y402900D02*
X192087D01*
X192095Y402859D01*
X192401Y402401D01*
X192859Y402095D01*
X192900Y402086D01*
Y402900D01*
D02*
G37*
G36*
X187714Y403000D02*
X186900D01*
Y402186D01*
X186941Y402195D01*
X187399Y402501D01*
X187705Y402959D01*
X187714Y403000D01*
D02*
G37*
G36*
X185900D02*
X185087D01*
X185095Y402959D01*
X185401Y402501D01*
X185859Y402195D01*
X185900Y402186D01*
Y403000D01*
D02*
G37*
G36*
X194713Y402900D02*
X193900D01*
Y402086D01*
X193941Y402095D01*
X194399Y402401D01*
X194705Y402859D01*
X194713Y402900D01*
D02*
G37*
G36*
X345300Y404000D02*
X344486D01*
X344495Y403959D01*
X344801Y403501D01*
X345259Y403195D01*
X345300Y403187D01*
Y404000D01*
D02*
G37*
G36*
X298413Y404300D02*
X297600D01*
Y403486D01*
X297641Y403495D01*
X298099Y403801D01*
X298405Y404259D01*
X298413Y404300D01*
D02*
G37*
G36*
X296600D02*
X295786D01*
X295795Y404259D01*
X296101Y403801D01*
X296559Y403495D01*
X296600Y403486D01*
Y404300D01*
D02*
G37*
G36*
X291213D02*
X290400D01*
Y403486D01*
X290441Y403495D01*
X290899Y403801D01*
X291205Y404259D01*
X291213Y404300D01*
D02*
G37*
G36*
X303800D02*
X302987D01*
X302995Y404259D01*
X303301Y403801D01*
X303759Y403495D01*
X303800Y403486D01*
Y404300D01*
D02*
G37*
G36*
X192900Y404713D02*
X192859Y404705D01*
X192401Y404399D01*
X192095Y403941D01*
X192087Y403900D01*
X192900D01*
Y404713D01*
D02*
G37*
G36*
X181000Y404613D02*
Y403800D01*
X181814D01*
X181805Y403841D01*
X181499Y404299D01*
X181041Y404605D01*
X181000Y404613D01*
D02*
G37*
G36*
X305613Y404300D02*
X304800D01*
Y403486D01*
X304841Y403495D01*
X305299Y403801D01*
X305605Y404259D01*
X305613Y404300D01*
D02*
G37*
G36*
X289400D02*
X288586D01*
X288595Y404259D01*
X288901Y403801D01*
X289359Y403495D01*
X289400Y403486D01*
Y404300D01*
D02*
G37*
G36*
X354114Y404000D02*
X353300D01*
Y403187D01*
X353341Y403195D01*
X353799Y403501D01*
X354105Y403959D01*
X354114Y404000D01*
D02*
G37*
G36*
X352300D02*
X351486D01*
X351495Y403959D01*
X351801Y403501D01*
X352259Y403195D01*
X352300Y403187D01*
Y404000D01*
D02*
G37*
G36*
X347113D02*
X346300D01*
Y403187D01*
X346341Y403195D01*
X346799Y403501D01*
X347105Y403959D01*
X347113Y404000D01*
D02*
G37*
G36*
X331500Y404100D02*
X330686D01*
X330695Y404059D01*
X331001Y403601D01*
X331459Y403295D01*
X331500Y403287D01*
Y404100D01*
D02*
G37*
G36*
X284613Y404300D02*
X283800D01*
Y403486D01*
X283841Y403495D01*
X284299Y403801D01*
X284605Y404259D01*
X284613Y404300D01*
D02*
G37*
G36*
X282800D02*
X281986D01*
X281995Y404259D01*
X282301Y403801D01*
X282759Y403495D01*
X282800Y403486D01*
Y404300D01*
D02*
G37*
G36*
X333313Y404100D02*
X332500D01*
Y403287D01*
X332541Y403295D01*
X332999Y403601D01*
X333305Y404059D01*
X333313Y404100D01*
D02*
G37*
G36*
X205100Y400400D02*
X204287D01*
X204295Y400359D01*
X204601Y399901D01*
X205059Y399595D01*
X205100Y399587D01*
Y400400D01*
D02*
G37*
G36*
X322413Y387800D02*
X321600D01*
Y386986D01*
X321641Y386995D01*
X322099Y387301D01*
X322405Y387759D01*
X322413Y387800D01*
D02*
G37*
G36*
X320600D02*
X319787D01*
X319795Y387759D01*
X320101Y387301D01*
X320559Y386995D01*
X320600Y386986D01*
Y387800D01*
D02*
G37*
G36*
X227700Y387014D02*
Y386200D01*
X228514D01*
X228505Y386241D01*
X228199Y386699D01*
X227741Y387005D01*
X227700Y387014D01*
D02*
G37*
G36*
X320600Y389614D02*
X320559Y389605D01*
X320101Y389299D01*
X319795Y388841D01*
X319787Y388800D01*
X320600D01*
Y389614D01*
D02*
G37*
G36*
X212192Y396868D02*
X211244Y396775D01*
X209851Y396352D01*
X208567Y395666D01*
X207441Y394743D01*
X206518Y393618D01*
X205832Y392334D01*
X205409Y390941D01*
X205316Y389992D01*
X212192D01*
Y396868D01*
D02*
G37*
G36*
X187208D02*
Y389992D01*
X194084D01*
X193991Y390941D01*
X193568Y392334D01*
X192882Y393618D01*
X191958Y394743D01*
X190833Y395666D01*
X189550Y396352D01*
X188156Y396775D01*
X187208Y396868D01*
D02*
G37*
G36*
X321600Y389614D02*
Y388800D01*
X322413D01*
X322405Y388841D01*
X322099Y389299D01*
X321641Y389605D01*
X321600Y389614D01*
D02*
G37*
G36*
X226700Y387014D02*
X226659Y387005D01*
X226201Y386699D01*
X225895Y386241D01*
X225887Y386200D01*
X226700D01*
Y387014D01*
D02*
G37*
G36*
X338008Y389292D02*
X331132D01*
X331225Y388344D01*
X331648Y386950D01*
X332334Y385667D01*
X333257Y384542D01*
X334383Y383618D01*
X335666Y382932D01*
X337059Y382509D01*
X338008Y382416D01*
Y389292D01*
D02*
G37*
G36*
X220068Y388992D02*
X213192D01*
Y382116D01*
X214141Y382209D01*
X215534Y382632D01*
X216817Y383318D01*
X217943Y384242D01*
X218866Y385367D01*
X219552Y386650D01*
X219975Y388043D01*
X220068Y388992D01*
D02*
G37*
G36*
X212192D02*
X205316D01*
X205409Y388043D01*
X205832Y386650D01*
X206518Y385367D01*
X207441Y384242D01*
X208567Y383318D01*
X209851Y382632D01*
X211244Y382209D01*
X212192Y382116D01*
Y388992D01*
D02*
G37*
G36*
X345884Y389292D02*
X339008D01*
Y382416D01*
X339956Y382509D01*
X341350Y382932D01*
X342633Y383618D01*
X343759Y384542D01*
X344682Y385667D01*
X345368Y386950D01*
X345791Y388344D01*
X345884Y389292D01*
D02*
G37*
G36*
X228514Y385200D02*
X227700D01*
Y384386D01*
X227741Y384395D01*
X228199Y384701D01*
X228505Y385159D01*
X228514Y385200D01*
D02*
G37*
G36*
X226700D02*
X225887D01*
X225895Y385159D01*
X226201Y384701D01*
X226659Y384395D01*
X226700Y384386D01*
Y385200D01*
D02*
G37*
G36*
X363992Y389292D02*
X357116D01*
X357209Y388344D01*
X357632Y386950D01*
X358318Y385667D01*
X359242Y384542D01*
X360367Y383618D01*
X361650Y382932D01*
X363043Y382509D01*
X363992Y382416D01*
Y389292D01*
D02*
G37*
G36*
X213192Y396868D02*
Y389992D01*
X220068D01*
X219975Y390941D01*
X219552Y392334D01*
X218866Y393618D01*
X217943Y394743D01*
X216817Y395666D01*
X215534Y396352D01*
X214141Y396775D01*
X213192Y396868D01*
D02*
G37*
G36*
X304461Y397650D02*
X302000D01*
Y396075D01*
X304461D01*
Y397650D01*
D02*
G37*
G36*
X301000D02*
X298539D01*
Y396075D01*
X301000D01*
Y397650D01*
D02*
G37*
G36*
X252861Y397450D02*
X250400D01*
Y395875D01*
X252861D01*
Y397450D01*
D02*
G37*
G36*
X249400Y400024D02*
X246939D01*
Y398450D01*
X249400D01*
Y400024D01*
D02*
G37*
G36*
X304461Y400224D02*
X302000D01*
Y398650D01*
X304461D01*
Y400224D01*
D02*
G37*
G36*
X301000D02*
X298539D01*
Y398650D01*
X301000D01*
Y400224D01*
D02*
G37*
G36*
X252861Y400024D02*
X250400D01*
Y398450D01*
X252861D01*
Y400024D01*
D02*
G37*
G36*
X249400Y397450D02*
X246939D01*
Y395875D01*
X249400D01*
Y397450D01*
D02*
G37*
G36*
X363992Y397168D02*
X363043Y397075D01*
X361650Y396652D01*
X360367Y395966D01*
X359242Y395043D01*
X358318Y393917D01*
X357632Y392634D01*
X357209Y391241D01*
X357116Y390292D01*
X363992D01*
Y397168D01*
D02*
G37*
G36*
X339008D02*
Y390292D01*
X345884D01*
X345791Y391241D01*
X345368Y392634D01*
X344682Y393917D01*
X343759Y395043D01*
X342633Y395966D01*
X341350Y396652D01*
X339956Y397075D01*
X339008Y397168D01*
D02*
G37*
G36*
X338008D02*
X337059Y397075D01*
X335666Y396652D01*
X334383Y395966D01*
X333257Y395043D01*
X332334Y393917D01*
X331648Y392634D01*
X331225Y391241D01*
X331132Y390292D01*
X338008D01*
Y397168D01*
D02*
G37*
G36*
X320500Y394700D02*
X319687D01*
X319695Y394659D01*
X320001Y394201D01*
X320459Y393895D01*
X320500Y393886D01*
Y394700D01*
D02*
G37*
G36*
X321500Y396514D02*
Y395700D01*
X322313D01*
X322305Y395741D01*
X321999Y396199D01*
X321541Y396505D01*
X321500Y396514D01*
D02*
G37*
G36*
X320500D02*
X320459Y396505D01*
X320001Y396199D01*
X319695Y395741D01*
X319687Y395700D01*
X320500D01*
Y396514D01*
D02*
G37*
G36*
X322313Y394700D02*
X321500D01*
Y393886D01*
X321541Y393895D01*
X321999Y394201D01*
X322305Y394659D01*
X322313Y394700D01*
D02*
G37*
%LPD*%
D10*
X233652Y336100D02*
D03*
X240148D02*
D03*
X318248D02*
D03*
X311752D02*
D03*
D11*
X250500Y347350D02*
D03*
Y353650D02*
D03*
X249900Y397950D02*
D03*
Y391650D02*
D03*
X301800Y347250D02*
D03*
Y353550D02*
D03*
X301500Y398150D02*
D03*
Y391850D02*
D03*
X235700Y275150D02*
D03*
Y281450D02*
D03*
X316200Y274450D02*
D03*
Y280750D02*
D03*
D12*
X249901Y246900D02*
D03*
X256200D02*
D03*
X249901Y237200D02*
D03*
X256200D02*
D03*
X249801Y227300D02*
D03*
X256100D02*
D03*
X249901Y217100D02*
D03*
X256200D02*
D03*
X249801Y206800D02*
D03*
X256100D02*
D03*
X250001Y196900D02*
D03*
X256300D02*
D03*
D13*
X335500Y173800D02*
X345000Y183300D01*
Y214500D01*
X356700Y226200D01*
X345500Y173800D02*
X356700Y185000D01*
Y206200D01*
D14*
X280800Y237000D02*
Y247000D01*
Y217000D02*
Y227000D01*
Y207000D02*
Y217000D01*
Y197000D02*
Y207000D01*
Y227000D02*
Y237000D01*
Y227000D02*
X355900D01*
D15*
X256300Y247000D02*
X270800D01*
X256200Y237200D02*
X270600D01*
X256100Y227300D02*
X270500D01*
X256200Y217100D02*
X270700D01*
X256100Y206800D02*
X270600D01*
X256400Y197000D02*
X270800D01*
D16*
X205600Y407200D02*
X209000Y403800D01*
X220700D01*
X233100Y391400D01*
Y380200D02*
Y391400D01*
Y380200D02*
X240400Y372900D01*
X250300D01*
Y382900D02*
Y391250D01*
Y353850D02*
Y362900D01*
X217400Y408100D02*
X268000D01*
X275100Y401000D01*
Y390500D02*
Y401000D01*
Y390500D02*
X292600Y373000D01*
X301400D01*
Y383000D02*
Y391750D01*
Y353950D02*
Y363000D01*
X300900Y316300D02*
X319800D01*
X332000Y376800D02*
X351500D01*
X231300Y316100D02*
X250200D01*
X199700Y376500D02*
X221500D01*
X227700Y319700D02*
X231300Y316100D01*
X221500Y376500D02*
X227700Y370300D01*
X240148Y336100D02*
X250200D01*
X227800D02*
X233652D01*
X227700Y319700D02*
Y370300D01*
X319800Y316300D02*
X324400Y320900D01*
Y369200D02*
X332000Y376800D01*
X300900Y336300D02*
X311552D01*
X318248Y336100D02*
X324300D01*
X324400Y320900D02*
Y369200D01*
X250300Y372900D02*
X256800D01*
X260600Y369100D01*
Y330400D02*
Y369100D01*
X250200Y326100D02*
X251100Y327000D01*
X256300Y326100D02*
X260600Y330400D01*
X250200Y326100D02*
X256300D01*
X290800Y371200D02*
X292600Y373000D01*
X290800Y330900D02*
Y371200D01*
Y330900D02*
X295400Y326300D01*
X300900D01*
X235700Y281450D02*
X251550D01*
X251600Y281400D01*
X300000Y280800D02*
X316150D01*
X316200Y280750D01*
X300000Y270800D02*
X313700D01*
X316200Y273300D01*
Y274450D01*
X238600Y271400D02*
X251600D01*
X235700Y274300D02*
X238600Y271400D01*
X235700Y274300D02*
Y275150D01*
X316200Y274450D02*
X323550D01*
X331600Y282500D01*
X351500D01*
X228350Y275150D02*
X235700D01*
X221001Y282500D02*
X228350Y275150D01*
X199500Y282500D02*
X221001D01*
X215600Y409900D02*
X217400Y408100D01*
X215600Y409900D02*
Y415800D01*
X205600Y407200D02*
Y415800D01*
D17*
X250200Y336100D02*
D03*
Y326100D02*
D03*
X250300Y362900D02*
D03*
Y372900D02*
D03*
X280800Y227000D02*
D03*
Y207000D02*
D03*
X270800D02*
D03*
Y217000D02*
D03*
Y227000D02*
D03*
Y197000D02*
D03*
X280800Y217000D02*
D03*
Y237000D02*
D03*
X270800Y247000D02*
D03*
Y237000D02*
D03*
X280800Y247000D02*
D03*
X301400Y363000D02*
D03*
Y373000D02*
D03*
X300900Y336300D02*
D03*
Y326300D02*
D03*
X251600Y291400D02*
D03*
Y281400D02*
D03*
X300000Y290800D02*
D03*
Y280800D02*
D03*
D18*
X250200Y316100D02*
D03*
X250300Y382900D02*
D03*
X280800Y197000D02*
D03*
X301400Y383000D02*
D03*
X300900Y316300D02*
D03*
X251600Y271400D02*
D03*
X300000Y270800D02*
D03*
D19*
X205500Y173800D02*
D03*
Y163800D02*
D03*
X215500Y173800D02*
D03*
Y163800D02*
D03*
X225500Y173800D02*
D03*
Y163800D02*
D03*
X235500Y173800D02*
D03*
Y163800D02*
D03*
X245500Y173800D02*
D03*
Y163800D02*
D03*
X255500Y173800D02*
D03*
Y163800D02*
D03*
X265500Y173800D02*
D03*
Y163800D02*
D03*
X275500Y173800D02*
D03*
Y163800D02*
D03*
X285500Y173800D02*
D03*
Y163800D02*
D03*
X295500Y173800D02*
D03*
Y163800D02*
D03*
X305500Y173800D02*
D03*
Y163800D02*
D03*
X315500Y173800D02*
D03*
X335500D02*
D03*
X325500D02*
D03*
X315500Y163800D02*
D03*
X325500D02*
D03*
X335500D02*
D03*
X345500Y173800D02*
D03*
X345600Y415800D02*
D03*
Y425800D02*
D03*
X335600Y415800D02*
D03*
Y425800D02*
D03*
X325600Y415800D02*
D03*
Y425800D02*
D03*
X315600Y415800D02*
D03*
Y425800D02*
D03*
X305600Y415800D02*
D03*
Y425800D02*
D03*
X295600Y415800D02*
D03*
Y425800D02*
D03*
X285600Y415800D02*
D03*
Y425800D02*
D03*
X275600Y415800D02*
D03*
Y425800D02*
D03*
X265600Y415800D02*
D03*
Y425800D02*
D03*
X255600Y415800D02*
D03*
Y425800D02*
D03*
X245600Y415800D02*
D03*
Y425800D02*
D03*
X235600Y415800D02*
D03*
X215600D02*
D03*
X225600D02*
D03*
X235600Y425800D02*
D03*
X225600D02*
D03*
X215600D02*
D03*
X205600Y415800D02*
D03*
D20*
X345500Y163800D02*
D03*
X205600Y425800D02*
D03*
D21*
X356700Y226200D02*
D03*
D22*
Y206200D02*
D03*
D23*
X364492Y389792D02*
D03*
Y363808D02*
D03*
X338508D02*
D03*
Y389792D02*
D03*
X364492Y295492D02*
D03*
Y269508D02*
D03*
X338508D02*
D03*
Y295492D02*
D03*
X186508Y269508D02*
D03*
Y295492D02*
D03*
X212492D02*
D03*
Y269508D02*
D03*
X186708Y363508D02*
D03*
Y389492D02*
D03*
X212692D02*
D03*
Y363508D02*
D03*
D24*
X351500Y376800D02*
D03*
Y282500D02*
D03*
X199500D02*
D03*
X199700Y376500D02*
D03*
D25*
X245300Y181100D02*
D03*
X244700Y188600D02*
D03*
X318000Y189900D02*
D03*
X315000Y181600D02*
D03*
X292100Y181000D02*
D03*
X291500Y189900D02*
D03*
X278200Y181000D02*
D03*
X278000Y189900D02*
D03*
X262600Y188500D02*
D03*
X263400Y181100D02*
D03*
X244900Y196800D02*
D03*
X244700Y207000D02*
D03*
X244900Y217100D02*
D03*
X244700Y227600D02*
D03*
X244600Y237300D02*
D03*
X244500Y247000D02*
D03*
X189500Y420700D02*
D03*
X363000Y419100D02*
D03*
X363400Y404400D02*
D03*
X352800Y404500D02*
D03*
X345800D02*
D03*
X338900D02*
D03*
X332000Y404600D02*
D03*
X186400Y403500D02*
D03*
X193400Y403400D02*
D03*
X205600Y400900D02*
D03*
X283300Y404800D02*
D03*
X289900D02*
D03*
X297100D02*
D03*
X304300D02*
D03*
X321000Y395200D02*
D03*
X321100Y388300D02*
D03*
X321300Y381300D02*
D03*
X321400Y374200D02*
D03*
X332400Y349900D02*
D03*
X339500Y349600D02*
D03*
X346500D02*
D03*
X353400Y349300D02*
D03*
X360300Y349600D02*
D03*
X366600Y349400D02*
D03*
X368700Y308300D02*
D03*
X362100D02*
D03*
X355600Y308200D02*
D03*
X348500Y308100D02*
D03*
X342300Y308200D02*
D03*
X181800Y350700D02*
D03*
X189200Y350600D02*
D03*
X195800D02*
D03*
X203200D02*
D03*
X210200D02*
D03*
X217200Y350300D02*
D03*
X180700Y308700D02*
D03*
X188100Y308600D02*
D03*
X194900D02*
D03*
X202200Y308800D02*
D03*
X209200Y308500D02*
D03*
X216800Y308800D02*
D03*
X224600Y308900D02*
D03*
X203200Y344300D02*
D03*
X203300Y337200D02*
D03*
X203600Y329600D02*
D03*
X203500Y320800D02*
D03*
X203600Y313900D02*
D03*
X353800Y343000D02*
D03*
Y337400D02*
D03*
Y331700D02*
D03*
X354000Y325300D02*
D03*
X354100Y319800D02*
D03*
X354200Y313900D02*
D03*
X234200Y402000D02*
D03*
X227200Y385700D02*
D03*
X235600Y363500D02*
D03*
X210400Y420800D02*
D03*
X220400Y420700D02*
D03*
X230900D02*
D03*
X240200Y420500D02*
D03*
X270200Y420700D02*
D03*
X280800D02*
D03*
X290700Y420900D02*
D03*
X300200D02*
D03*
X310400Y420600D02*
D03*
X320500Y420900D02*
D03*
X330800Y420500D02*
D03*
X340400Y420600D02*
D03*
X196600Y425800D02*
D03*
X196500Y420700D02*
D03*
X196700Y416300D02*
D03*
Y411900D02*
D03*
X196600Y407300D02*
D03*
X201300Y403500D02*
D03*
X180500Y403300D02*
D03*
M02*
