G04 Layer_Color=8150272*
%FSLAX25Y25*%
%MOIN*%
G70*
G01*
G75*
%ADD33R,0.15644X0.06876*%
G04:AMPARAMS|DCode=37|XSize=68mil|YSize=88mil|CornerRadius=19mil|HoleSize=0mil|Usage=FLASHONLY|Rotation=90.000|XOffset=0mil|YOffset=0mil|HoleType=Round|Shape=RoundedRectangle|*
%AMROUNDEDRECTD37*
21,1,0.06800,0.05000,0,0,90.0*
21,1,0.03000,0.08800,0,0,90.0*
1,1,0.03800,0.02500,0.01500*
1,1,0.03800,0.02500,-0.01500*
1,1,0.03800,-0.02500,-0.01500*
1,1,0.03800,-0.02500,0.01500*
%
%ADD37ROUNDEDRECTD37*%
%ADD38R,0.08800X0.06800*%
%ADD39C,0.06902*%
%ADD40R,0.06902X0.06902*%
%ADD41C,0.07690*%
%ADD42R,0.07690X0.07690*%
%ADD43C,0.14579*%
%ADD44C,0.08674*%
D33*
X364954Y367754D02*
D03*
Y273454D02*
D03*
Y291562D02*
D03*
Y385862D02*
D03*
X186278Y291562D02*
D03*
Y273454D02*
D03*
X186278Y367454D02*
D03*
Y385562D02*
D03*
D37*
X250200Y336100D02*
D03*
Y326100D02*
D03*
X250300Y362900D02*
D03*
Y372900D02*
D03*
X280800Y227000D02*
D03*
Y207000D02*
D03*
X270800D02*
D03*
Y217000D02*
D03*
Y227000D02*
D03*
Y197000D02*
D03*
X280800Y217000D02*
D03*
Y237000D02*
D03*
X270800Y247000D02*
D03*
Y237000D02*
D03*
X280800Y247000D02*
D03*
X301400Y363000D02*
D03*
Y373000D02*
D03*
X300900Y336300D02*
D03*
Y326300D02*
D03*
X251600Y291400D02*
D03*
Y281400D02*
D03*
X300000Y290800D02*
D03*
Y280800D02*
D03*
D38*
X250200Y316100D02*
D03*
X250300Y382900D02*
D03*
X280800Y197000D02*
D03*
X301400Y383000D02*
D03*
X300900Y316300D02*
D03*
X251600Y271400D02*
D03*
X300000Y270800D02*
D03*
D39*
X205500Y173800D02*
D03*
Y163800D02*
D03*
X215500Y173800D02*
D03*
Y163800D02*
D03*
X225500Y173800D02*
D03*
Y163800D02*
D03*
X235500Y173800D02*
D03*
Y163800D02*
D03*
X245500Y173800D02*
D03*
Y163800D02*
D03*
X255500Y173800D02*
D03*
Y163800D02*
D03*
X265500Y173800D02*
D03*
Y163800D02*
D03*
X275500Y173800D02*
D03*
Y163800D02*
D03*
X285500Y173800D02*
D03*
Y163800D02*
D03*
X295500Y173800D02*
D03*
Y163800D02*
D03*
X305500Y173800D02*
D03*
Y163800D02*
D03*
X315500Y173800D02*
D03*
X335500D02*
D03*
X325500D02*
D03*
X315500Y163800D02*
D03*
X325500D02*
D03*
X335500D02*
D03*
X345500Y173800D02*
D03*
X345600Y415800D02*
D03*
Y425800D02*
D03*
X335600Y415800D02*
D03*
Y425800D02*
D03*
X325600Y415800D02*
D03*
Y425800D02*
D03*
X315600Y415800D02*
D03*
Y425800D02*
D03*
X305600Y415800D02*
D03*
Y425800D02*
D03*
X295600Y415800D02*
D03*
Y425800D02*
D03*
X285600Y415800D02*
D03*
Y425800D02*
D03*
X275600Y415800D02*
D03*
Y425800D02*
D03*
X265600Y415800D02*
D03*
Y425800D02*
D03*
X255600Y415800D02*
D03*
Y425800D02*
D03*
X245600Y415800D02*
D03*
Y425800D02*
D03*
X235600Y415800D02*
D03*
X215600D02*
D03*
X225600D02*
D03*
X235600Y425800D02*
D03*
X225600D02*
D03*
X215600D02*
D03*
X205600Y415800D02*
D03*
D40*
X345500Y163800D02*
D03*
X205600Y425800D02*
D03*
D41*
X356700Y226200D02*
D03*
D42*
Y206200D02*
D03*
D43*
X364492Y389792D02*
D03*
Y363808D02*
D03*
X338508D02*
D03*
Y389792D02*
D03*
X364492Y295492D02*
D03*
Y269508D02*
D03*
X338508D02*
D03*
Y295492D02*
D03*
X186508Y269508D02*
D03*
Y295492D02*
D03*
X212492D02*
D03*
Y269508D02*
D03*
X186708Y363508D02*
D03*
Y389492D02*
D03*
X212692D02*
D03*
Y363508D02*
D03*
D44*
X351500Y376800D02*
D03*
Y282500D02*
D03*
X199500D02*
D03*
X199700Y376500D02*
D03*
M02*
