M48
;Layer_Color=6321
;FILE_FORMAT=2:5
INCH,LZ
;TYPE=PLATED
T1F00S00C0.00984
T2F00S00C0.03600
T3F00S00C0.03937
T4F00S00C0.04016
T5F00S00C0.04606
T6F00S00C0.04921
T7F00S00C0.08307
%
T01
X0315Y01816
X0318Y01899
X03423Y03082
X03485Y03081
X03556Y03082
X03621Y03083
X03687
X02246Y03089
X02168Y03088
X02092Y03085
X02022Y03088
X01949Y03086
X01881
X01807Y03087
X02445Y0247
X02446Y02373
X02447Y02276
X02449Y02171
X02447Y0207
X02449Y01968
X02447Y01886
X02453Y01811
X02634
X02626Y01885
X0278Y01899
X02782Y0181
X02921
X02915Y01899
X02036Y03139
X02035Y03208
X02036Y03296
X02033Y03372
X02032Y03443
Y03506
X02102
X02172Y03503
X01958Y03506
X01892
X01818Y03507
X01805Y04033
X01864Y04035
X01934Y04034
X01966Y04073
X01967Y04119
Y04163
X01965Y04207
X01966Y04258
X01895Y04207
X02104Y04208
X02204Y04207
X02309
X02402Y04205
X02342Y0402
X02272Y03857
X02356Y03635
X02056Y04009
X02013Y04035
X02833Y04048
X02899
X02971
X03043
X03002Y04209
X02907
X02808Y04207
X02702
X03104Y04206
X03205Y04209
X03308Y04205
X03404Y04206
X03389Y04045
X03458
X03528
X03634Y04044
X0363Y04191
X0332Y04046
X0321Y03952
X03211Y03883
X03213Y03813
X03214Y03742
X03324Y03499
X03395Y03496
X03465
X03534Y03493
X03538Y0343
Y03374
Y03317
X0354Y03253
X03541Y03198
X03542Y03139
X03603Y03496
X03666Y03494
T02
X02708Y0197
X02808
Y0207
X02708
Y0217
Y0227
X02808
Y0217
Y0237
X02708
Y0247
X02808
T03
X02516Y02714
Y02814
Y02914
X03Y02908
Y02808
Y02708
X03009Y03163
Y03263
Y03363
X03014Y0363
Y0373
Y0383
X02503Y03829
Y03729
Y03629
X02502Y03361
Y03261
Y03161
T04
X03155Y01638
Y01738
X03255
X03355
Y01638
X03255
X03455
Y01738
X03055
X02955
X02855
X02755
X02655
X02555
X02455
X02355
X02255
X02155
X02055
Y01638
X02155
X02255
X02355
X02455
X02555
X02655
X02755
X02855
X02955
X03055
X03056Y04158
Y04258
X02956
Y04158
X02856
Y04258
X02756
Y04158
X02656
Y04258
X02556
Y04158
X02456
Y04258
X02356
Y04158
X02256
X02156
Y04258
X02256
X02056
Y04158
X03156
X03256
X03356
X03456
Y04258
X03356
X03256
X03156
T05
X03515Y02825
X01995
X01997Y03765
X03515Y03768
T06
X03567Y02062
Y02262
T07
X0338508Y0269508
X0364492
Y0295492
X0338508
X0212492
X0186508
Y0269508
X0212492
X0212692Y0363508
X0186708
Y0389492
X0212692
X0338508Y0389792
X0364492
Y0363808
X0338508
M30
